<?xml version="1.0" encoding="iso-8859-1"?>
<!-- Uploaded to: SVG Repo, www.svgrepo.com, Generator: SVG Repo Mixer Tools -->
<svg fill="#000000" height="800px" width="800px" version="1.1" id="Layer_1" xmlns="http://www.w3.org/2000/svg" xmlns:xlink="http://www.w3.org/1999/xlink" 
	 viewBox="0 0 512.001 512.001" xml:space="preserve">
<g>
	<g>
		<g>
			<path d="M83.537,495.833H61.979c-4.465,0-8.084,3.619-8.084,8.084c0,4.466,3.62,8.084,8.084,8.084h21.558
				c4.465,0,8.084-3.618,8.084-8.084C91.622,499.452,88.002,495.833,83.537,495.833z"/>
			<path d="M428.464,204.801h-35.032v-38.727c0-30.775-19.493-58.343-48.505-68.602c-1.743-0.617-3.647-0.617-5.389,0
				c-12.983,4.591-24.06,12.647-32.337,22.907V69.064c0-30.775-19.493-58.343-48.505-68.602c-1.743-0.617-3.647-0.617-5.39,0
				c-29.013,10.258-48.505,37.827-48.505,68.602v8.201c-8.277-10.26-19.354-18.317-32.337-22.907c-1.743-0.617-3.647-0.617-5.39,0
				c-29.013,10.258-48.505,37.827-48.505,68.602v81.842H83.537c-16.345,0-29.642,13.298-29.642,29.642v43.116
				c0,14.034,9.803,25.821,22.92,28.875l38.323,182.032c2.872,13.638,15.07,23.536,29.006,23.536h295.097
				c4.465,0,8.084-3.618,8.084-8.084c0-4.466-3.62-8.084-8.084-8.084h-44.996c1.178-2.291,2.067-4.76,2.616-7.367l38.322-182.033
				c13.117-3.054,22.92-14.839,22.92-28.874v-43.116C458.106,218.099,444.809,204.801,428.464,204.801z M307.201,166.074
				c0-22.971,13.962-43.644,35.032-52.326c21.07,8.682,35.032,29.355,35.032,52.326v38.727h-26.947v-45.81
				c0-4.466-3.62-8.084-8.084-8.084c-4.465,0-8.084,3.618-8.084,8.084v45.81h-26.947V166.074z M134.737,122.959
				c0-22.971,13.962-43.644,35.032-52.326c21.07,8.682,35.032,29.355,35.032,52.326v14.474c0,4.466,3.62,8.084,8.084,8.084
				s8.084-3.618,8.084-8.084V69.065c0-22.971,13.962-43.644,35.032-52.326c21.07,8.682,35.032,29.355,35.032,52.326v135.736h-26.947
				V83.538c0-4.466-3.62-8.084-8.084-8.084c-4.465,0-8.084,3.619-8.084,8.084v121.263h-26.947V169.77
				c0-4.466-3.62-8.084-8.084-8.084s-8.084,3.619-8.084,8.084v35.032h-26.947v-88.926c0-4.466-3.62-8.084-8.084-8.084
				s-8.084,3.618-8.084,8.084v88.926h-26.947V122.959z M441.937,277.559c0,7.388-5.977,13.406-13.349,13.473
				c-0.099,0-0.198-0.001-0.296,0.001H180.548c-4.465,0-8.084,3.619-8.084,8.084c0,4.466,3.62,8.084,8.084,8.084h237.953
				l-5.673,26.947H277.558c-4.465,0-8.084,3.619-8.084,8.084c0,4.466,3.62,8.084,8.084,8.084h131.864l-5.673,26.947h-83.075
				c-4.465,0-8.084,3.618-8.084,8.084c0,4.466,3.62,8.084,8.084,8.084h79.672l-5.673,26.947h-41.662
				c-4.465,0-8.084,3.618-8.084,8.084c0,4.466,3.62,8.084,8.084,8.084h38.259l-10.229,48.586
				c-1.305,6.199-6.85,10.698-13.185,10.698h-4.066H144.144c-6.335,0-11.879-4.499-13.185-10.698L93.5,307.201h54.711
				c4.465,0,8.084-3.618,8.084-8.084c0-4.466-3.62-8.084-8.084-8.084H83.709c-0.098-0.002-0.197-0.001-0.296-0.001
				c-7.372-0.067-13.349-6.085-13.349-13.473v-43.116c0-7.43,6.044-13.474,13.474-13.474h344.926c7.43,0,13.474,6.044,13.474,13.474
				V277.559z"/>
		</g>
	</g>
</g>
</svg>