<svg xmlns="http://www.w3.org/2000/svg" viewBox="0 0 1500 1500" width="1500" height="1500"><defs><clipPath id="a"><path d="M0 0h189.293v581.594H0z"/></clipPath></defs><g clip-path="url(#a)" transform="translate(879.0 238.0) rotate(0.0 178.0 546.0) scale(1.8806823284537726 1.87759846215745) translate(-0.0 -0.0)"><path style="fill:#000" d="M93.806 485.253h39.229c31.07 0 56.258-25.188 56.258-56.258V139.296C189.293 62.365 126.928 0 49.997 0H0v581.594h7.87c29.995 0 54.31-24.316 54.31-54.31V516.88c0-17.467 14.16-31.627 31.626-31.627z"/></g><defs><clipPath id="b"><path transform="scale(0.3915201612903226 0.3908868243243243)" d="M0 0h500v1093H0z"/></clipPath><clipPath id="c"><path d="M0 0h194.194v462.81H0z"/></clipPath></defs><g clip-path="url(#b)" transform="translate(389.0 238.0) rotate(0.0 248.0 592.0) scale(2.5541468840437913 2.5582852574490613)"><g clip-path="url(#c)" transform="translate(-0.0 -0.0)"><path style="fill:#115693" d="M194.194 0h-7.68C83.505 0 0 83.505 0 186.514V462.81h194.194V0z"/></g></g><defs><clipPath id="d"><path d="M0 0h139.207v96.204H0z"/></clipPath></defs><g clip-path="url(#d)" transform="translate(643.0 833.0) rotate(56.51671859730965 158.5 110.0) scale(2.277184336994548 2.286807201363769) translate(-0.0 -0.0)"><path style="fill:#ee442b" d="m1.944 2.91 135.319 90.383"/><path transform="matrix(0.5554 -0.8316 0.8316 0.5554 -9.0561 79.2648)" style="fill:#ee442b" d="M66.103-33.262h7v162.728h-7z"/></g><defs><clipPath id="e"><path d="M0 0h149.507v133.946H0z"/></clipPath></defs><g clip-path="url(#e)" transform="translate(588.0 582.0) rotate(0.0 189.5 169.0) scale(2.5349983612807425 2.5234049542352888) translate(-0.0 -0.0)"><path style="fill:#108e82" d="M40.308 52.072S9.793 58.494 0 75.555c0 0 16.285 20.194 41.37 26.762l-1.062-50.245zm43.03-26.063S63.621 1.851 43.967.986c0 0-10.46 23.739-4.776 49.039l44.147-24.016zM58.037 95.906s9.133 29.816 27.004 38.039c0 0 18.652-18.03 22.943-43.604l-49.947 5.565z"/><path style="fill:#ffeea6" d="M106.452 27.92C106.452 10.974 88.061 0 80.369 0c-8.511 0-26.083 10.974-26.083 27.92 0 10.863 6.931 21.537 14.335 27.802 2.787 2.358 4.447 5.782 4.447 9.432a6.571 6.571 0 0 0 6.571 6.571h1.392a6.638 6.638 0 0 0 6.638-6.638c0-3.643 1.653-7.061 4.43-9.419 7.387-6.272 14.353-16.916 14.353-27.748z"/><path style="fill:#ffeea6" d="M35.778 81.177c-11.982 11.982-5.668 34.577-1.299 38.185 4.021 3.32 26.203 10.683 38.185-1.299 7.681-7.681 10.328-20.13 9.523-29.795-.303-3.638.943-7.233 3.525-9.814a6.571 6.571 0 0 0 0-9.293l-.984-.984a6.638 6.638 0 0 0-9.387 0c-2.576 2.576-6.162 3.824-9.792 3.527-9.659-.788-22.111 1.813-29.771 9.473z"/><path style="fill:#ffeea6" d="M127.845 77.537c12.08 11.883 11.715 27.904 1.613 38.173-10.102 10.269-26.115 10.898-38.195-.985-7.744-7.618-10.493-20.044-9.767-29.716.273-3.64-1.003-7.225-3.605-9.785a6.572 6.572 0 0 1-.076-9.293l.976-.992a6.638 6.638 0 0 1 9.387-.077c2.597 2.555 6.193 3.773 9.821 3.447 9.65-.867 22.123 1.632 29.846 9.228z"/><path style="fill:#ffeea6" d="M51.463 27.73c-15.231-7.426-33.999 5.668-36.526 11.208-3.235 7.09-1.567 28.254 13.665 35.68 9.764 4.761 22.396 3.209 31.272-.7 3.341-1.471 7.146-1.464 10.427.136a6.571 6.571 0 0 0 8.786-3.027l.61-1.251a6.637 6.637 0 0 0-3.057-8.875c-3.274-1.596-5.622-4.581-6.524-8.11-2.401-9.388-8.916-20.314-18.653-25.061zm59.409-3.286c15.029-7.828 32.263 3.511 36.811 10.236 3.922 5.799 2.315 28.202-12.714 36.03-9.635 5.018-22.303 3.802-31.28.129-3.378-1.382-7.182-1.274-10.42.412a6.572 6.572 0 0 1-8.864-2.793l-.643-1.235a6.638 6.638 0 0 1 2.821-8.953c3.231-1.683 5.499-4.728 6.307-8.28 2.151-9.447 8.374-20.542 17.982-25.546z"/><circle style="fill:#ee442b" cx="81.342" cy="67.553" r="14.666"/><circle style="fill:#115693" cx="62.831" cy="49.041" r="3.846"/><circle style="fill:#115693" cx="103.211" cy="77.573" r="3.846"/><circle style="fill:#115693" cx="64.265" cy="83.253" r="3.846"/><circle style="fill:#115693" cx="84.215" cy="35.255" r="3.846"/><circle style="fill:#115693" cx="105.433" cy="52.072" r="3.846"/><circle style="fill:#115693" cx="76.557" cy="46.994" r="2.048"/><circle style="fill:#115693" cx="101.587" cy="62.54" r="2.048"/><circle style="fill:#115693" cx="98.056" cy="87.099" r="2.048"/><circle style="fill:#115693" cx="92.293" cy="44.479" r="2.048"/><circle style="fill:#115693" cx="58.985" cy="68.433" r="2.048"/><circle style="fill:#115693" cx="68.925" cy="91.194" r="2.048"/><circle style="fill:#115693" cx="83.011" cy="88.112" r="2.048"/><circle style="fill:#115693" cx="86.569" cy="65.475" r="2.048"/><circle style="fill:#115693" cx="76.767" cy="68.237" r="2.048"/><circle style="fill:#115693" cx="79.225" cy="74.815" r="1.376"/><circle style="fill:#115693" cx="79.896" cy="62.051" r="1.376"/><circle style="fill:#115693" cx="85.843" cy="71.821" r="1.027"/></g><defs><clipPath id="f"><path d="M0 0h200.142v175.986H0z"/></clipPath></defs><g clip-path="url(#f)" transform="translate(1306.0 293.0) rotate(-19.596956497381434 -186.0 163.5) scale(-1.8586803369607579 1.8581023490504927) translate(-0.0 -0.0)"><g data-name="Layer 2"><g data-name="Layer 1" fill="#ee442b"><path d="m46.128 31.375 81.2 37.634-44.282 95.517a19.665 19.665 0 0 1-26.18 9.614l-45.407-20.965a19.666 19.666 0 0 1-9.613-26.181l44.282-95.619Z"/><path d="M114.238 97.235 33.038 59.6l15.647-33.645a44.749 44.749 0 0 1 81.2 37.634ZM52.673 52.442l54.3 25.158 9.408-20.249a29.957 29.957 0 1 0-53.788-26.385l-.614 1.227Zm118.834 66.064 3.886-8.386-85.086 21.374-10.942 37.43 92.142-50.418z"/><path d="m200.142 135.38-28.635-16.874-2.147-6.442 12.885-30.578 17.897 53.894z"/><path d="m164.553 112.779-.307 9.716 7.261-3.989-1.943-6.954-5.011 1.227zm-97.46-71.791 39.475 18.306a8.174 8.174 0 0 1 3.988 10.942 8.175 8.175 0 0 1-10.943 3.989L60.138 55.919a8.176 8.176 0 0 1-3.988-10.943 8.285 8.285 0 0 1 10.943-3.988Zm-1.023 83.348a12.422 12.422 0 0 1-22.908-9.614 3.084 3.084 0 0 1 .409-.818c2.864-6.238 20.249-14.215 20.249-14.215s5.113 18.411 2.25 24.647ZM55.843 95.8a8.307 8.307 0 0 1-11.556-.2 8.157 8.157 0 0 1-.307-10.943c3.068-3.273 15.545-4.5 15.545-4.5s-.511 12.374-3.682 15.643Zm15.749 7.878a8.161 8.161 0 0 0 16.056 2.863c.716-4.4-5.522-15.135-5.522-15.135s-9.818 7.874-10.534 12.272Z"/></g></g></g><defs><clipPath id="g"><path transform="scale(1.384313725490196 1.3829787234042554)" d="M0 0h255v271H0z"/></clipPath><clipPath id="h"><path d="M0 0h353v390H0z"/></clipPath></defs><g clip-path="url(#g)" transform="translate(679.0 1069.0) rotate(0.0 127.5 141.0) scale(0.7223796033994334 0.7230769230769231)"><g clip-path="url(#h)" transform="translate(-0.0 -0.0)"><path style="fill:#108e82" d="M280 390H73L0 0h353l-73 390z"/><path style="fill:#007171" d="M334.2 100 353 0H0l18.7 100h315.5z"/></g></g><defs><clipPath id="i"><path d="M0 0h294.44v428.6H0z"/></clipPath></defs><g clip-path="url(#i)" transform="translate(854.0 251.0) rotate(0.0 -384.5 560.0) scale(-2.611737535660916 2.6131591227251514) translate(-0.0 -0.0)"><path d="M266.46 105.9a69.22 69.22 0 0 0-69.22-69.22q-2.72 0-5.37.21l-10.62.45C142.79 41.23 119 72.25 119 107.55V132h9l.24 14.43 3 .06.11 15.58c0 19.94 16.4 18.35 29.66 18.5l10.9.2L172 211h53.42v-41.81a69.24 69.24 0 0 0 41.04-63.29Z" style="fill:#ffc1a3"/><circle cx="142.79" cy="95.77" r="6.44" style="fill:#0f0f0e"/><path style="fill:#ffc1a3" d="M217.77 175.69h11.89v34.59h-11.89z"/><path d="M136.84 81.62h11.9a3.17 3.17 0 0 0 0-6.33h-11.9a3.17 3.17 0 0 0 0 6.33Zm48.52-28.69v18.91a29.77 29.77 0 0 0 13.51 25l11.4 7.43-5.13 24.43 7.72 47.7 16.8 5.63c3.22-4 53.71-55.45 32.4-101.69Z" style="fill:#050c04"/><circle cx="209.89" cy="117.64" r="16.06" style="fill:#ffc1a3"/><path d="M128.62 131.91H148a14.55 14.55 0 0 1 14.55 14.55.39.39 0 0 1-.39.39h-33.54a7.47 7.47 0 0 1-7.47-7.47 7.47 7.47 0 0 1 7.47-7.47Z" style="fill:#050c04"/><path style="fill:#ee442b" d="M225.4 187.59h.01-.01z"/><path d="M186.7 45.75c-.58-.44-56.35-22.22-79.88 19.75 0 0 76.83 15.41 79.88-10.74s0-9.01 0-9.01Z" style="fill:#050c04"/><path d="M144 45.54c.72-.06 34.08-24.56 77.46-6.83s42.92 52 42.92 52l-39.6-4-39.91-32.61s-1.2 5.74-8.41 11.85l-33.67-20.29m8.8 163.21-5.48-4.36L162.45 184l.75-1.08c18.61-23.64 32.8-48.57 45.8-99.74l6.79 1.72c-13.33 52.31-27.88 77.93-47 102.26l-.77 1.11Z" style="fill:#050c04"/><circle cx="166.37" cy="186.42" r="6.7" style="fill:#ee442b"/><path d="M229.66 427.55V197h-34.41A110.27 110.27 0 0 0 85 307.22v120.33Z" style="fill:#108e82"/><path d="M229.66 427.55v-231h-24c-35.88-1.51-79 29.61-80.43 80.06 0 0-.58 128.62-.58 150.93Z" style="fill:#ee442b"/><path transform="translate(385.17 745.74) rotate(-180)" style="fill:#ffc1a3" d="M155.44 317.27h74.3v111.2h-74.3z"/><path transform="translate(540.07 264.74) rotate(90)" style="fill:#ffc1a3" d="M111.74 324.4h51.85v156h-51.85z"/><path d="m67.69 428.5-46.39.1a8.72 8.72 0 0 1 .18-17.43L14 411.1a8.66 8.66 0 0 1-8.5-8.8 8.69 8.69 0 0 1 7.22-8.51l-4.23-.1a8.71 8.71 0 0 1 .17-17.42l5 .11a8.71 8.71 0 0 1-6-8.4 8.64 8.64 0 0 1 8.67-8.62l32.36.32c10.85.11 19.55 9.74 19.43 21.51Z" style="fill:#115693"/><path d="m293.76 138.86-27.84-39.63-101.49-67.32-47.34-10.22a3.56 3.56 0 0 0-2.67 6.48c19.64 12.53 155.22 102.46 174.41 115.67a3.56 3.56 0 0 0 4.93-4.98Z" style="fill:#ffeea6"/><path d="M198.47 17.24h59a34.48 34.48 0 0 1 34.48 34.48v23.22H164V51.72a34.48 34.48 0 0 1 34.47-34.48Z" transform="translate(63.46 -118.32) rotate(33.55)" style="fill:#ffeea6"/><path transform="translate(69.2 -111.32) rotate(33.55)" style="fill:#ee442b" d="M155.33 50.41h127.76v17.41H155.33z"/><path style="fill:#115693" d="m66.39 428.5 58.14-.17-15.31-63.19-43.63 11.34.8 52.02z"/><path d="M219.34 234.51a63.9 63.9 0 0 0-63.9 63.9v53.17h74.22V234.51Z" style="fill:#108e82"/><path style="fill:#050c04" d="M152.06 295.5v80.98m-3.5-80.98h7v80.98h-7z"/></g><defs><clipPath id="j"><path transform="scale(0.44052848101265824 0.43729090909090906)" d="M0 0h165v163H0z"/></clipPath><clipPath id="k"><path d="M0 0h139.207v96.204H0z"/></clipPath></defs><g clip-path="url(#j)" transform="translate(648.0 927.0) rotate(115.35053455450104 158.0 110.0) scale(2.2700007901901484 2.286807201363769)"><g clip-path="url(#k)" transform="translate(-0.0 -0.0)"><path style="fill:#ee442b" d="m1.944 2.91 135.319 90.383"/><path transform="matrix(0.5554 -0.8316 0.8316 0.5554 -9.0561 79.2648)" style="fill:#ee442b" d="M66.103-33.262h7v162.728h-7z"/></g></g><defs><clipPath id="l"><path d="M0 0h104.668v121.602H0z"/></clipPath></defs><g clip-path="url(#l)" transform="translate(1173.0 152.0) rotate(135.8212481769742 -96.5 113.5) scale(-1.8439255550884701 1.8667456127366326) translate(-0.0 -0.0)"><path style="fill:#ffc1a3" d="M104.572 17.707C104.537 7.873 96.523-.063 86.689 0L49.383.239c-8.682.056-15.675 7.139-15.619 15.82.038 5.879 3.3 10.98 8.097 13.646l-14.842.095c-8.682.056-15.675 7.138-15.619 15.82.038 5.914 3.338 11.042 8.182 13.694l-3.963.025C6.938 59.396-.055 66.479 0 75.16c.056 8.682 7.139 15.674 15.82 15.619l6.168-.039c-6.667 1.856-11.541 7.99-11.494 15.242.056 8.682 7.138 15.674 15.82 15.619l78.354-.429-.096-103.465z"/></g><defs><clipPath id="m"><path d="M0 0h51.8v51.8H0z"/></clipPath></defs><g clip-path="url(#m)" transform="translate(646.0 320.0) rotate(0.0 68.5 68.5) scale(2.644787644787645 2.644787644787645) translate(-0.0 -0.0)"><path d="M25.9 51.8C11.6 51.8 0 40.2 0 25.9 0 11.6 11.6 0 25.9 0s25.9 11.6 25.9 25.9c0 14.3-11.6 25.9-25.9 25.9zm0-40c-7.8 0-14.1 6.3-14.1 14.1S18.1 40 25.9 40 40 33.7 40 25.9s-6.3-14.1-14.1-14.1z" style="fill:#050c04"/></g><defs><clipPath id="n"><path d="M0 0h149.507v133.946H0z"/></clipPath></defs><g clip-path="url(#n)" transform="translate(903.0 858.0) rotate(-180.0 88.0 78.5) scale(1.1772024052385506 1.1721141355471607) translate(-0.0 -0.0)"><path style="fill:#108e82" d="M40.308 52.072S9.793 58.494 0 75.555c0 0 16.285 20.194 41.37 26.762l-1.062-50.245zm43.03-26.063S63.621 1.851 43.967.986c0 0-10.46 23.739-4.776 49.039l44.147-24.016zM58.037 95.906s9.133 29.816 27.004 38.039c0 0 18.652-18.03 22.943-43.604l-49.947 5.565z"/><path style="fill:#ffeea6" d="M106.452 27.92C106.452 10.974 88.061 0 80.369 0c-8.511 0-26.083 10.974-26.083 27.92 0 10.863 6.931 21.537 14.335 27.802 2.787 2.358 4.447 5.782 4.447 9.432a6.571 6.571 0 0 0 6.571 6.571h1.392a6.638 6.638 0 0 0 6.638-6.638c0-3.643 1.653-7.061 4.43-9.419 7.387-6.272 14.353-16.916 14.353-27.748z"/><path style="fill:#ffeea6" d="M35.778 81.177c-11.982 11.982-5.668 34.577-1.299 38.185 4.021 3.32 26.203 10.683 38.185-1.299 7.681-7.681 10.328-20.13 9.523-29.795-.303-3.638.943-7.233 3.525-9.814a6.571 6.571 0 0 0 0-9.293l-.984-.984a6.638 6.638 0 0 0-9.387 0c-2.576 2.576-6.162 3.824-9.792 3.527-9.659-.788-22.111 1.813-29.771 9.473z"/><path style="fill:#ffeea6" d="M127.845 77.537c12.08 11.883 11.715 27.904 1.613 38.173-10.102 10.269-26.115 10.898-38.195-.985-7.744-7.618-10.493-20.044-9.767-29.716.273-3.64-1.003-7.225-3.605-9.785a6.572 6.572 0 0 1-.076-9.293l.976-.992a6.638 6.638 0 0 1 9.387-.077c2.597 2.555 6.193 3.773 9.821 3.447 9.65-.867 22.123 1.632 29.846 9.228z"/><path style="fill:#ffeea6" d="M51.463 27.73c-15.231-7.426-33.999 5.668-36.526 11.208-3.235 7.09-1.567 28.254 13.665 35.68 9.764 4.761 22.396 3.209 31.272-.7 3.341-1.471 7.146-1.464 10.427.136a6.571 6.571 0 0 0 8.786-3.027l.61-1.251a6.637 6.637 0 0 0-3.057-8.875c-3.274-1.596-5.622-4.581-6.524-8.11-2.401-9.388-8.916-20.314-18.653-25.061zm59.409-3.286c15.029-7.828 32.263 3.511 36.811 10.236 3.922 5.799 2.315 28.202-12.714 36.03-9.635 5.018-22.303 3.802-31.28.129-3.378-1.382-7.182-1.274-10.42.412a6.572 6.572 0 0 1-8.864-2.793l-.643-1.235a6.638 6.638 0 0 1 2.821-8.953c3.231-1.683 5.499-4.728 6.307-8.28 2.151-9.447 8.374-20.542 17.982-25.546z"/><circle style="fill:#ee442b" cx="81.342" cy="67.553" r="14.666"/><circle style="fill:#115693" cx="62.831" cy="49.041" r="3.846"/><circle style="fill:#115693" cx="103.211" cy="77.573" r="3.846"/><circle style="fill:#115693" cx="64.265" cy="83.253" r="3.846"/><circle style="fill:#115693" cx="84.215" cy="35.255" r="3.846"/><circle style="fill:#115693" cx="105.433" cy="52.072" r="3.846"/><circle style="fill:#115693" cx="76.557" cy="46.994" r="2.048"/><circle style="fill:#115693" cx="101.587" cy="62.54" r="2.048"/><circle style="fill:#115693" cx="98.056" cy="87.099" r="2.048"/><circle style="fill:#115693" cx="92.293" cy="44.479" r="2.048"/><circle style="fill:#115693" cx="58.985" cy="68.433" r="2.048"/><circle style="fill:#115693" cx="68.925" cy="91.194" r="2.048"/><circle style="fill:#115693" cx="83.011" cy="88.112" r="2.048"/><circle style="fill:#115693" cx="86.569" cy="65.475" r="2.048"/><circle style="fill:#115693" cx="76.767" cy="68.237" r="2.048"/><circle style="fill:#115693" cx="79.225" cy="74.815" r="1.376"/><circle style="fill:#115693" cx="79.896" cy="62.051" r="1.376"/><circle style="fill:#115693" cx="85.843" cy="71.821" r="1.027"/></g><defs><clipPath id="o"><path d="M0 0h33.34v44.616H0z"/></clipPath></defs><g clip-path="url(#o)" transform="translate(1022.0 691.0) rotate(0.0 60.0 79.5) scale(3.5992801439712054 3.563743948359333) translate(-0.0 -0.0)"><path style="fill:#115693" d="M33.34 27.947C33.34 18.74 16.67 0 16.67 0S0 18.74 0 27.947s7.463 16.67 16.67 16.67 16.67-7.464 16.67-16.67z"/></g><defs><clipPath id="p"><path d="M0 0h14.745v14.745H0z"/></clipPath></defs><g clip-path="url(#p)" transform="translate(813.0 488.0) rotate(-180.0 21.0 21.0) scale(2.848423194303154 2.848423194303154) translate(-0.0 -0.0)"><circle style="fill:#050c04" cx="7.372" cy="7.372" r="7.372"/></g><defs><clipPath id="q"><path transform="scale(0.7954182692307692 0.7970815602836879)" d="M3 0h118v282H3z"/></clipPath><clipPath id="r"><path d="M0 0h165.447v224.777H0z"/></clipPath></defs><g clip-path="url(#q)" transform="translate(1317.0 266.0) rotate(136.208342509556 -104.0 -141.0) scale(-1.2572001909977213 -1.2545767582982246)"><g clip-path="url(#r)" transform="translate(-0.0 -0.0)"><path style="fill:#108e82" d="M0 0h165.447v224.777H0z"/></g></g><defs><clipPath id="s"><path transform="scale(0.25087044534412956 0.2501393728222997)" d="M66 0h428v287H66z"/></clipPath><clipPath id="t"><path d="M0 0h123.93v71.79H0z"/></clipPath></defs><g clip-path="url(#s)" transform="translate(457.0 1100.0) rotate(0.0 247.0 143.5) scale(3.9861211974501733 3.997771277336676)"><g clip-path="url(#t)" transform="translate(-0.0 -0.0)"><path d="M42.76 19a16.6 16.6 0 0 0-17.55 16l-1 26.21a7.16 7.16 0 0 0 6.85 7.48l28.06 1.75L61 19.84Z" style="fill:#ffeea6"/><path d="M56.5 20.77h52.16a6.48 6.48 0 0 1 6.48 6.48 6.48 6.48 0 0 1-6.48 6.48H56.5v-13 .04Z" transform="translate(1.08 -3.2) rotate(2.15)" style="fill:#ffeea6"/><path d="M36.95 6.31h27.81a8.39 8.39 0 0 1 8.39 8.39 8.39 8.39 0 0 1-8.39 8.39H36.95V6.31Z" transform="translate(3.67 39.33) rotate(-40.56)" style="fill:#ffeea6"/><path d="m93.16 71.79-38.29-1.6.48-12.8 38.29 1.44a6.48 6.48 0 0 1 6.24 6.72 6.48 6.48 0 0 1-6.72 6.24Z" style="fill:#ffeea6"/><path d="M56 33.81h61.45a6.48 6.48 0 0 1 6.55 6.48 6.48 6.48 0 0 1-6.48 6.48H56v-13Z" transform="translate(1.57 -3.34) rotate(2.15)" style="fill:#ffeea6"/><path d="M55.54 46.57h56.13a6.48 6.48 0 0 1 6.48 6.48 6.48 6.48 0 0 1-6.48 6.48H55.54v-13Z" transform="translate(2.05 -3.22) rotate(2.15)" style="fill:#ffeea6"/><path style="fill:#ffeea6" d="M1.39 30.61 0 67.7l33.45 1.11 2.03-36.92-34.09-1.28z"/></g></g></svg>