<svg xmlns="http://www.w3.org/2000/svg" viewBox="0 0 1080 1080" width="1080" height="1080"><g transform="translate(468.0 113.0) rotate(0.0 244.5 583.0) translate(39.22243881296599 0.0) scale(1.9814417115766443 1.982919006431732)"><svg width="226.995" height="462.954" viewBox="19.795 0 226.995 462.954"><path d="M246.79 588.022H0V0h26.291C148.069 0 246.79 98.721 246.79 220.499z" fill="#050c04"/></svg></g><g transform="translate(114.0 35.0) rotate(0.0 219.5 536.5) translate(0.0 0.0) scale(1.9866410831945551 1.9873093720250552)"><svg width="199.835" height="500.677" viewBox="0 0 199.835 500.677"><path d="M220.976 539.926H0V200.595C0 89.809 89.809 0 200.595 0h20.381z" fill="#115693"/></svg></g><g transform="translate(66.0 892.0) rotate(0.0 253.0 277.5) translate(201.01499891645074 0.0) scale(4.110412503452421 4.080972374390611)"><svg width="74.198" height="33.815" viewBox="48.904 0 74.198 33.815"><path d="M71.19 102.268 30.791 73.611l4.05-5.709 35.296 25.037 25.551-28.6 5.22 4.664z" fill="#ee442b"/><g fill="#108e82"><circle cx="32.816" cy="47.587" r="32.816"/><circle cx="56.594" cy="22.169" r="22.169"/><circle cx="87.801" cy="39.174" r="22.169"/><circle cx="65.632" cy="56.944" r="22.169"/><circle cx="100.933" cy="54.346" r="22.169"/></g><path d="M67.163 97.603h7v38.394h-7z" fill="#ee442b"/></svg></g><g transform="translate(627.0 227.0) rotate(0.0 -256.5 365.0) scale(-1.780619363975259 1.7786267539574447)"><svg width="288.102" height="410.429" viewBox="0 0 288.102 410.429"><path d="M246.703 39.288C227.557 4.213 183.602-8.7 148.527 10.446a73.362 73.362 0 0 0-4.819 2.875l-9.52 5.737c-34.147 18.639-46.006 61.042-27.367 95.189l13.643 24.993 15.187-8.29 4.934 9.04 3.979-2.172 4.076 7.589c6.561 12.216 19.966 13.547 32.214 7.045l11.692-6.207 20.116 36.739 49.017-26.756-20.981-38.334c16.802-22.016 20.131-52.726 6.005-78.606z" fill="#ffc1a3"/><circle cx="133.768" cy="90.515" fill="#0f0f0e" r="6.734"/><path d="M288.091 143.182h-11.198c-49.691 0-89.973 40.282-89.973 89.973v177.274h101.171z" fill="#ee442b"/><path d="m215.8 335.26 72.302 27.566-.011-118.949H215.8z" fill="#ffc49c"/><path d="M211.02 239.416h77.071v38.242H211.02z" fill="#108e82"/><path d="m288.102 362.826-32.387-63.896-158.703-1.673 25.494 47.802z" fill="#ffc49c"/><path d="m164.626 109.899.209 2.629a11.537 11.537 0 0 1-7.209 11.622l-6.195 2.483-15.781 4.318-2.526 13.027 28.801-15.972c6.635-3.68 7.973-12.652 2.701-18.107zM89.323 59.998s37.21 12.391 82.478-29.459c0 0-2.444 80.045 58.425 61.524l10.989 26.95 24.317-13.818-11.765-48.042c-2.528-17.325-27.709-80.811-107.969-47.769-17.359 7.147-32.902 18.072-43.914 33.275z" fill="#050c04"/><path d="m194.369 62.622-6.24 26.789a55.672 55.672 0 0 1-21.542 32.442l-22.023 15.966s1.154 20.252 14.359 33.467c0 0 80.183-27.703 65.171-91.123z" fill="#050c04"/><g fill="#ffc49c"><path d="M23.715 315.741 2.901 336.742c-3.899 3.942-3.863 10.298.078 14.196 3.942 3.899 10.298 3.863 14.196-.078l22.114-22.293z"/><path d="m53.91 313.271-20.814 21.002c-3.899 3.942-3.863 10.298.078 14.196 3.942 3.899 10.298 3.863 14.196-.078l22.114-22.293z"/><path d="m75.66 313.351-20.814 21.002c-3.899 3.942-3.863 10.298.078 14.196 3.942 3.899 10.298 3.863 14.196-.078l22.114-22.293z"/><path d="m96.693 317.653-20.814 21.002c-3.899 3.942-3.863 10.298.078 14.196 3.942 3.899 10.298 3.863 14.196-.078l22.114-22.293z"/><path d="M111.83 297.855s-54.734-20.794-92.378 21.989l16.253 13.026 57.96 15.536 6.896-.225a92.753 92.753 0 0 0 15.377-1.793l6.568-1.328z"/></g><path d="m135.333 346.471-13.863-1.202V297.45h13.863z" fill="#050c04"/><ellipse cx="128.441" cy="321.181" fill="#050c04" rx="9.53" ry="19.918"/><path d="M100.138 110.363a3.5 3.5 0 0 1-1.836-6.483l12.932-7.944a3.5 3.5 0 0 1 3.664 5.964l-12.932 7.944a3.483 3.483 0 0 1-1.828.519zm50.657-37.119a3.499 3.499 0 0 1-2.484-5.965c1.401-1.412 2.842-2.932 4.368-4.541 8.523-8.987 18.183-19.174 30.033-20.73l13.816-1.815a3.5 3.5 0 1 1 .912 6.94l-13.816 1.815c-9.391 1.234-18.144 10.465-25.866 18.607-1.554 1.639-3.021 3.187-4.478 4.654a3.495 3.495 0 0 1-2.485 1.035z"/><path d="M124.115 122.718 99.138 82.535l43.431-26.996 24.977 40.184zm-9.85-36.653 13.381 21.526 24.774-15.399-13.381-21.526z" fill="#115693"/><path d="M186.181 47.427c-.221.117-.437.24-.65.365l15.675 29.649c.224-.106.447-.215.668-.332 8.196-4.333 11.328-14.491 6.995-22.688s-14.491-11.327-22.688-6.994z" fill="#ffc1a3"/><path d="M208.646 217.445h7v80.986h-7z" fill="#050c04"/></svg></g><g transform="translate(409.0 961.0) rotate(0.0 127.0 139.0) translate(0.0 0.0) scale(2.0633295965946936 2.0441627388839456)"><svg width="123.102" height="34.244" viewBox="0 0 123.102 34.244"><path d="M71.19 102.268 30.791 73.611l4.05-5.709 35.296 25.037 25.551-28.6 5.22 4.664z" fill="#ee442b"/><g fill="#108e82"><circle cx="32.816" cy="47.587" r="32.816"/><circle cx="56.594" cy="22.169" r="22.169"/><circle cx="87.801" cy="39.174" r="22.169"/><circle cx="65.632" cy="56.944" r="22.169"/><circle cx="100.933" cy="54.346" r="22.169"/></g><path d="M67.163 97.603h7v38.394h-7z" fill="#ee442b"/></svg></g><g transform="translate(627.0 277.0) rotate(0.0 -256.5 365.0) translate(-0.0 648.5705552630435) scale(-1.780619363975259 1.7786267539574447)"><svg width="288.102" height="44.979" viewBox="0 364.647 288.102 44.979"><path d="M246.703 39.288C227.557 4.213 183.602-8.7 148.527 10.446a73.362 73.362 0 0 0-4.819 2.875l-9.52 5.737c-34.147 18.639-46.006 61.042-27.367 95.189l13.643 24.993 15.187-8.29 4.934 9.04 3.979-2.172 4.076 7.589c6.561 12.216 19.966 13.547 32.214 7.045l11.692-6.207 20.116 36.739 49.017-26.756-20.981-38.334c16.802-22.016 20.131-52.726 6.005-78.606z" fill="#ffc1a3"/><circle cx="133.768" cy="90.515" fill="#0f0f0e" r="6.734"/><path d="M288.091 143.182h-11.198c-49.691 0-89.973 40.282-89.973 89.973v177.274h101.171z" fill="#ee442b"/><path d="m215.8 335.26 72.302 27.566-.011-118.949H215.8z" fill="#ffc49c"/><path d="M211.02 239.416h77.071v38.242H211.02z" fill="#108e82"/><path d="m288.102 362.826-32.387-63.896-158.703-1.673 25.494 47.802z" fill="#ffc49c"/><path d="m164.626 109.899.209 2.629a11.537 11.537 0 0 1-7.209 11.622l-6.195 2.483-15.781 4.318-2.526 13.027 28.801-15.972c6.635-3.68 7.973-12.652 2.701-18.107zM89.323 59.998s37.21 12.391 82.478-29.459c0 0-2.444 80.045 58.425 61.524l10.989 26.95 24.317-13.818-11.765-48.042c-2.528-17.325-27.709-80.811-107.969-47.769-17.359 7.147-32.902 18.072-43.914 33.275z" fill="#050c04"/><path d="m194.369 62.622-6.24 26.789a55.672 55.672 0 0 1-21.542 32.442l-22.023 15.966s1.154 20.252 14.359 33.467c0 0 80.183-27.703 65.171-91.123z" fill="#050c04"/><g fill="#ffc49c"><path d="M23.715 315.741 2.901 336.742c-3.899 3.942-3.863 10.298.078 14.196 3.942 3.899 10.298 3.863 14.196-.078l22.114-22.293z"/><path d="m53.91 313.271-20.814 21.002c-3.899 3.942-3.863 10.298.078 14.196 3.942 3.899 10.298 3.863 14.196-.078l22.114-22.293z"/><path d="m75.66 313.351-20.814 21.002c-3.899 3.942-3.863 10.298.078 14.196 3.942 3.899 10.298 3.863 14.196-.078l22.114-22.293z"/><path d="m96.693 317.653-20.814 21.002c-3.899 3.942-3.863 10.298.078 14.196 3.942 3.899 10.298 3.863 14.196-.078l22.114-22.293z"/><path d="M111.83 297.855s-54.734-20.794-92.378 21.989l16.253 13.026 57.96 15.536 6.896-.225a92.753 92.753 0 0 0 15.377-1.793l6.568-1.328z"/></g><path d="m135.333 346.471-13.863-1.202V297.45h13.863z" fill="#050c04"/><ellipse cx="128.441" cy="321.181" fill="#050c04" rx="9.53" ry="19.918"/><path d="M100.138 110.363a3.5 3.5 0 0 1-1.836-6.483l12.932-7.944a3.5 3.5 0 0 1 3.664 5.964l-12.932 7.944a3.483 3.483 0 0 1-1.828.519zm50.657-37.119a3.499 3.499 0 0 1-2.484-5.965c1.401-1.412 2.842-2.932 4.368-4.541 8.523-8.987 18.183-19.174 30.033-20.73l13.816-1.815a3.5 3.5 0 1 1 .912 6.94l-13.816 1.815c-9.391 1.234-18.144 10.465-25.866 18.607-1.554 1.639-3.021 3.187-4.478 4.654a3.495 3.495 0 0 1-2.485 1.035z"/><path d="M124.115 122.718 99.138 82.535l43.431-26.996 24.977 40.184zm-9.85-36.653 13.381 21.526 24.774-15.399-13.381-21.526z" fill="#115693"/><path d="M186.181 47.427c-.221.117-.437.24-.65.365l15.675 29.649c.224-.106.447-.215.668-.332 8.196-4.333 11.328-14.491 6.995-22.688s-14.491-11.327-22.688-6.994z" fill="#ffc1a3"/><path d="M208.646 217.445h7v80.986h-7z" fill="#050c04"/></svg></g><g transform="translate(627.0 302.0) rotate(0.0 -256.5 365.0) translate(-0.0 648.5705552630435) scale(-1.780619363975259 1.7786267539574447)"><svg width="288.102" height="44.979" viewBox="0 364.647 288.102 44.979"><path d="M246.703 39.288C227.557 4.213 183.602-8.7 148.527 10.446a73.362 73.362 0 0 0-4.819 2.875l-9.52 5.737c-34.147 18.639-46.006 61.042-27.367 95.189l13.643 24.993 15.187-8.29 4.934 9.04 3.979-2.172 4.076 7.589c6.561 12.216 19.966 13.547 32.214 7.045l11.692-6.207 20.116 36.739 49.017-26.756-20.981-38.334c16.802-22.016 20.131-52.726 6.005-78.606z" fill="#ffc1a3"/><circle cx="133.768" cy="90.515" fill="#0f0f0e" r="6.734"/><path d="M288.091 143.182h-11.198c-49.691 0-89.973 40.282-89.973 89.973v177.274h101.171z" fill="#ee442b"/><path d="m215.8 335.26 72.302 27.566-.011-118.949H215.8z" fill="#ffc49c"/><path d="M211.02 239.416h77.071v38.242H211.02z" fill="#108e82"/><path d="m288.102 362.826-32.387-63.896-158.703-1.673 25.494 47.802z" fill="#ffc49c"/><path d="m164.626 109.899.209 2.629a11.537 11.537 0 0 1-7.209 11.622l-6.195 2.483-15.781 4.318-2.526 13.027 28.801-15.972c6.635-3.68 7.973-12.652 2.701-18.107zM89.323 59.998s37.21 12.391 82.478-29.459c0 0-2.444 80.045 58.425 61.524l10.989 26.95 24.317-13.818-11.765-48.042c-2.528-17.325-27.709-80.811-107.969-47.769-17.359 7.147-32.902 18.072-43.914 33.275z" fill="#050c04"/><path d="m194.369 62.622-6.24 26.789a55.672 55.672 0 0 1-21.542 32.442l-22.023 15.966s1.154 20.252 14.359 33.467c0 0 80.183-27.703 65.171-91.123z" fill="#050c04"/><g fill="#ffc49c"><path d="M23.715 315.741 2.901 336.742c-3.899 3.942-3.863 10.298.078 14.196 3.942 3.899 10.298 3.863 14.196-.078l22.114-22.293z"/><path d="m53.91 313.271-20.814 21.002c-3.899 3.942-3.863 10.298.078 14.196 3.942 3.899 10.298 3.863 14.196-.078l22.114-22.293z"/><path d="m75.66 313.351-20.814 21.002c-3.899 3.942-3.863 10.298.078 14.196 3.942 3.899 10.298 3.863 14.196-.078l22.114-22.293z"/><path d="m96.693 317.653-20.814 21.002c-3.899 3.942-3.863 10.298.078 14.196 3.942 3.899 10.298 3.863 14.196-.078l22.114-22.293z"/><path d="M111.83 297.855s-54.734-20.794-92.378 21.989l16.253 13.026 57.96 15.536 6.896-.225a92.753 92.753 0 0 0 15.377-1.793l6.568-1.328z"/></g><path d="m135.333 346.471-13.863-1.202V297.45h13.863z" fill="#050c04"/><ellipse cx="128.441" cy="321.181" fill="#050c04" rx="9.53" ry="19.918"/><path d="M100.138 110.363a3.5 3.5 0 0 1-1.836-6.483l12.932-7.944a3.5 3.5 0 0 1 3.664 5.964l-12.932 7.944a3.483 3.483 0 0 1-1.828.519zm50.657-37.119a3.499 3.499 0 0 1-2.484-5.965c1.401-1.412 2.842-2.932 4.368-4.541 8.523-8.987 18.183-19.174 30.033-20.73l13.816-1.815a3.5 3.5 0 1 1 .912 6.94l-13.816 1.815c-9.391 1.234-18.144 10.465-25.866 18.607-1.554 1.639-3.021 3.187-4.478 4.654a3.495 3.495 0 0 1-2.485 1.035z"/><path d="M124.115 122.718 99.138 82.535l43.431-26.996 24.977 40.184zm-9.85-36.653 13.381 21.526 24.774-15.399-13.381-21.526z" fill="#115693"/><path d="M186.181 47.427c-.221.117-.437.24-.65.365l15.675 29.649c.224-.106.447-.215.668-.332 8.196-4.333 11.328-14.491 6.995-22.688s-14.491-11.327-22.688-6.994z" fill="#ffc1a3"/><path d="M208.646 217.445h7v80.986h-7z" fill="#050c04"/></svg></g><g transform="translate(791.0 933.0) rotate(0.0 176.0 193.0) translate(0.0 0.0) scale(2.8594173937060323 2.838297903630227)"><svg width="58.404" height="34.528" viewBox="0 0 58.404 34.528"><path d="M71.19 102.268 30.791 73.611l4.05-5.709 35.296 25.037 25.551-28.6 5.22 4.664z" fill="#ee442b"/><g fill="#108e82"><circle cx="32.816" cy="47.587" r="32.816"/><circle cx="56.594" cy="22.169" r="22.169"/><circle cx="87.801" cy="39.174" r="22.169"/><circle cx="65.632" cy="56.944" r="22.169"/><circle cx="100.933" cy="54.346" r="22.169"/></g><path d="M67.163 97.603h7v38.394h-7z" fill="#ee442b"/></svg></g><g transform="translate(699.0 858.0) rotate(9.302284922037671 -87.0 62.0) translate(-76.0 0.0) scale(-0.5503020335873999 0.5487478370926986)"><svg width="178.084" height="187.7" viewBox="138.106 0 178.084 187.7"><g fill="#108e82"><path d="M137.542 225.97c-4.629-62.261-27.637-115.4-68.387-157.953l3.611-3.458c41.573 43.409 65.045 97.591 69.763 161.04z"/><path d="m126 150.069-3.367-3.7c31.145-28.359 71.8-41.9 72.21-42.035.359-.115 34.649-10.9 79.177-10.346l-.063 5c-43.682-.549-77.24 10-77.574 10.1-.383.131-40.056 13.362-70.383 40.981z"/><ellipse cx="50.49" cy="50.49" rx="29.612" ry="70.926" transform="matrix(.70710678 -.70710678 .70710678 .70710678 -20.913 50.49)"/><path d="m202.689 106.786-4.985-.394c.623-7.88-9.831-19.507-13.911-23.322l3.414-3.652c.671.627 16.419 15.497 15.482 27.368zm25.791-4.215-2.4-4.384c5.309-2.913 8.541-7.639 9.6-14.046a28.112 28.112 0 0 0-.03-9.223l4.891-1.033c.04.197 4.01 19.868-12.061 28.686zm-25.696 34.774-4.6-1.971c5.05-11.775-11.166-23.666-11.33-23.785l2.922-4.058a46.507 46.507 0 0 1 8.832 8.744c5.527 7.268 6.969 14.554 4.176 21.07z"/></g><circle cx="174.692" cy="73.284" fill="#ee442b" r="26.844"/><path d="m150.672 55.325 7.906-7.907 4.974 4.974-7.907 7.906z" fill="#115693"/><circle cx="235.87" cy="53.306" fill="#ee442b" r="26.844"/><path d="m230.54 23.947 11.18-.133.083 7.034-11.18.132z" fill="#115693"/><circle cx="218.288" cy="146.892" fill="#ee442b" r="26.844"/><path d="m239.986 166.59-8.732 6.983-4.394-5.492 8.732-6.985z" fill="#115693"/><circle cx="286.771" cy="102.504" fill="#ee442b" r="26.844"/><path d="m316.188 107.497-3.686 10.556-6.64-2.319 3.685-10.556z" fill="#115693"/></svg></g><g transform="translate(583.0 870.0) rotate(-32.66249464609725 49.0 65.5) translate(37.970837328627816 58.22195057056269) scale(0.30155887475459875 0.30394643118165554)"><svg width="43.109" height="233.594" viewBox="125.915 191.553 43.109 233.594"><g fill="#108e82"><path d="M47.819 242.809c13.85-11.4 33.482-13.613 48.965-4.555 8.414 4.922 13.574 11.57 13.574 18.874 0 7.57-5.532 14.446-14.491 19.419 8.959 4.972 14.491 11.826 14.491 19.4 0 8.552-7.052 16.2-18.112 21.238-14.337 6.532-31.178 4.181-43.738-5.33L4.461 278.5zm77.806-217.566c34.642 8.063 58.421 35.92 57.556 70.614-.47 18.855-7.35 34.692-20.613 43.295-13.748 8.917-31.8 8.432-49.851.388-.012 19.758-6.89 36.416-20.638 45.334-15.53 10.073-36.517 8.139-56.8-3.088C8.988 167.233-3.693 138.332.938 107.639L17.179 0z"/><ellipse cx="243.882" cy="186.92" rx="87.89" ry="31.698" transform="matrix(.92269966 -.38551958 .38551958 .92269966 -53.209 108.472)"/><path d="m153.4 431-9-.244c2.1-77.3-.382-186.007-24.135-264.961-11.357-37.75-24.336-56.771-29.613-61.555l5.971-6.74c.68.6 16.806 15.215 31.752 64.026C141.927 205.788 157.268 288.464 153.4 431z"/><path d="M143.334 309.235c-17.416-36.882-60.555-31.126-60.989-31.064l-1.283-8.909a80.038 80.038 0 0 1 27.4 1.758c19.751 4.724 34.624 16.61 43.012 34.372zm5.457-33.335-8.748-2.117c.689-2.848 17.449-70.108 68.472-101.331l4.7 7.677c-47.805 29.248-64.264 95.105-64.424 95.771z"/></g></svg></g><g transform="translate(814.0 829.0) rotate(35.67078058284366 53.0 78.5) scale(0.32936643569586427 0.3313340733831108)"><svg width="321.83" height="473.842" viewBox="0 0 321.83 473.842"><g fill="#115693"><path d="M120.354 309.467c-2.327-22.575-9.748-29.076-9.823-29.135l3.119-3.909c.37.3 9.1 7.526 11.677 32.532z"/><path d="m126.535 307.62-4.422-2.334c.221-.419 5.693-10.345 29.778-17.546l1.433 4.79c-21.744 6.502-26.745 15.006-26.789 15.09zm22.479-73.42-4.1-2.859c.268-.391 6.854-9.615 31.611-13.976l.867 4.924c-22.346 3.939-28.319 11.834-28.378 11.911zm-24.5 173-4.1-2.859c.268-.391 6.854-9.615 31.611-13.976l.867 4.924c-22.346 3.939-28.319 11.834-28.378 11.911z"/><path d="M120.434 407.856c-14.259-17.649-24.059-19.055-24.156-19.067l.516-4.974c.471.046 11.731 1.345 27.53 20.9zm26.515-184.01c-3.185-22.466-10.875-28.7-10.953-28.761l3-4c.381.281 9.379 7.174 12.907 32.063z"/></g><ellipse cx="64.917" cy="211.668" fill="#108e82" rx="30.741" ry="85.957" transform="matrix(.8304598 -.55707855 .55707855 .8304598 -106.909 72.049)"/><ellipse cx="229.741" cy="275.121" fill="#108e82" rx="91.361" ry="32.674" transform="matrix(.9719569 -.23515908 .23515908 .9719569 -58.254 61.74)"/><ellipse cx="118.039" cy="129.658" fill="#108e82" rx="28.809" ry="82.655" transform="matrix(.94114062 -.33801528 .33801528 .94114062 -36.878 47.53)"/><ellipse cx="244.039" cy="193.325" fill="#108e82" rx="82.655" ry="28.809" transform="matrix(.94114062 -.33801528 .33801528 .94114062 -50.982 93.866)"/><ellipse cx="51.072" cy="325.853" fill="#108e82" rx="28.809" ry="82.655" transform="matrix(.78831153 -.61527631 .61527631 .78831153 -189.678 100.402)"/><ellipse cx="215.774" cy="365.572" fill="#108e82" rx="82.655" ry="28.809" transform="matrix(.91673267 -.3995012 .3995012 .91673267 -128.078 116.64)"/><path d="M127.735 473.841c-.132-.506-13.143-51.381-12.644-114 .294-36.877 5.136-70.607 14.392-100.253 11.638-37.28 30.321-68.175 55.529-91.826l6.158 6.563c-24.036 22.552-41.889 52.1-53.062 87.834-9 28.77-13.712 61.588-14.016 97.541-.519 61.474 12.226 111.383 12.355 111.88z" fill="#115693"/><ellipse cx="210.85" cy="91.838" fill="#108e82" rx="96.815" ry="28.903" transform="matrix(.31651008 -.94858915 .94858915 .31651008 56.999 262.782)"/></svg></g><g transform="translate(721.0 835.0) rotate(-70.2099180290246 53.0 78.5) translate(45.40500335911592 105.45678199536611) scale(0.32936643569586427 0.3313340733831108)"><svg width="183.974" height="96.579" viewBox="137.856 318.279 183.974 96.579"><g fill="#115693"><path d="M120.354 309.467c-2.327-22.575-9.748-29.076-9.823-29.135l3.119-3.909c.37.3 9.1 7.526 11.677 32.532z"/><path d="m126.535 307.62-4.422-2.334c.221-.419 5.693-10.345 29.778-17.546l1.433 4.79c-21.744 6.502-26.745 15.006-26.789 15.09zm22.479-73.42-4.1-2.859c.268-.391 6.854-9.615 31.611-13.976l.867 4.924c-22.346 3.939-28.319 11.834-28.378 11.911zm-24.5 173-4.1-2.859c.268-.391 6.854-9.615 31.611-13.976l.867 4.924c-22.346 3.939-28.319 11.834-28.378 11.911z"/><path d="M120.434 407.856c-14.259-17.649-24.059-19.055-24.156-19.067l.516-4.974c.471.046 11.731 1.345 27.53 20.9zm26.515-184.01c-3.185-22.466-10.875-28.7-10.953-28.761l3-4c.381.281 9.379 7.174 12.907 32.063z"/></g><ellipse cx="64.917" cy="211.668" fill="#108e82" rx="30.741" ry="85.957" transform="matrix(.8304598 -.55707855 .55707855 .8304598 -106.909 72.049)"/><ellipse cx="229.741" cy="275.121" fill="#108e82" rx="91.361" ry="32.674" transform="matrix(.9719569 -.23515908 .23515908 .9719569 -58.254 61.74)"/><ellipse cx="118.039" cy="129.658" fill="#108e82" rx="28.809" ry="82.655" transform="matrix(.94114062 -.33801528 .33801528 .94114062 -36.878 47.53)"/><ellipse cx="244.039" cy="193.325" fill="#108e82" rx="82.655" ry="28.809" transform="matrix(.94114062 -.33801528 .33801528 .94114062 -50.982 93.866)"/><ellipse cx="51.072" cy="325.853" fill="#108e82" rx="28.809" ry="82.655" transform="matrix(.78831153 -.61527631 .61527631 .78831153 -189.678 100.402)"/><ellipse cx="215.774" cy="365.572" fill="#108e82" rx="82.655" ry="28.809" transform="matrix(.91673267 -.3995012 .3995012 .91673267 -128.078 116.64)"/><path d="M127.735 473.841c-.132-.506-13.143-51.381-12.644-114 .294-36.877 5.136-70.607 14.392-100.253 11.638-37.28 30.321-68.175 55.529-91.826l6.158 6.563c-24.036 22.552-41.889 52.1-53.062 87.834-9 28.77-13.712 61.588-14.016 97.541-.519 61.474 12.226 111.383 12.355 111.88z" fill="#115693"/><ellipse cx="210.85" cy="91.838" fill="#108e82" rx="96.815" ry="28.903" transform="matrix(.31651008 -.94858915 .94858915 .31651008 56.999 262.782)"/></svg></g><g transform="translate(534.0 802.0) rotate(-45.95079898906583 62.0 91.5) translate(53.02779875143202 123.1613390355848) scale(0.38529658515365256 0.38620468426184257)"><svg width="184.201" height="95.804" viewBox="137.629 318.902 184.201 95.804"><g fill="#115693"><path d="M120.354 309.467c-2.327-22.575-9.748-29.076-9.823-29.135l3.119-3.909c.37.3 9.1 7.526 11.677 32.532z"/><path d="m126.535 307.62-4.422-2.334c.221-.419 5.693-10.345 29.778-17.546l1.433 4.79c-21.744 6.502-26.745 15.006-26.789 15.09zm22.479-73.42-4.1-2.859c.268-.391 6.854-9.615 31.611-13.976l.867 4.924c-22.346 3.939-28.319 11.834-28.378 11.911zm-24.5 173-4.1-2.859c.268-.391 6.854-9.615 31.611-13.976l.867 4.924c-22.346 3.939-28.319 11.834-28.378 11.911z"/><path d="M120.434 407.856c-14.259-17.649-24.059-19.055-24.156-19.067l.516-4.974c.471.046 11.731 1.345 27.53 20.9zm26.515-184.01c-3.185-22.466-10.875-28.7-10.953-28.761l3-4c.381.281 9.379 7.174 12.907 32.063z"/></g><ellipse cx="64.917" cy="211.668" fill="#108e82" rx="30.741" ry="85.957" transform="matrix(.8304598 -.55707855 .55707855 .8304598 -106.909 72.049)"/><ellipse cx="229.741" cy="275.121" fill="#108e82" rx="91.361" ry="32.674" transform="matrix(.9719569 -.23515908 .23515908 .9719569 -58.254 61.74)"/><ellipse cx="118.039" cy="129.658" fill="#108e82" rx="28.809" ry="82.655" transform="matrix(.94114062 -.33801528 .33801528 .94114062 -36.878 47.53)"/><ellipse cx="244.039" cy="193.325" fill="#108e82" rx="82.655" ry="28.809" transform="matrix(.94114062 -.33801528 .33801528 .94114062 -50.982 93.866)"/><ellipse cx="51.072" cy="325.853" fill="#108e82" rx="28.809" ry="82.655" transform="matrix(.78831153 -.61527631 .61527631 .78831153 -189.678 100.402)"/><ellipse cx="215.774" cy="365.572" fill="#108e82" rx="82.655" ry="28.809" transform="matrix(.91673267 -.3995012 .3995012 .91673267 -128.078 116.64)"/><path d="M127.735 473.841c-.132-.506-13.143-51.381-12.644-114 .294-36.877 5.136-70.607 14.392-100.253 11.638-37.28 30.321-68.175 55.529-91.826l6.158 6.563c-24.036 22.552-41.889 52.1-53.062 87.834-9 28.77-13.712 61.588-14.016 97.541-.519 61.474 12.226 111.383 12.355 111.88z" fill="#115693"/><ellipse cx="210.85" cy="91.838" fill="#108e82" rx="96.815" ry="28.903" transform="matrix(.31651008 -.94858915 .94858915 .31651008 56.999 262.782)"/></svg></g><g transform="translate(618.0 918.0) rotate(0.0 130.5 142.5) translate(0.0 0.0) scale(2.120193010674075 2.0956344625249086)"><svg width="122.159" height="53.922" viewBox="0 0 122.159 53.922"><path d="M71.19 102.268 30.791 73.611l4.05-5.709 35.296 25.037 25.551-28.6 5.22 4.664z" fill="#ee442b"/><g fill="#108e82"><circle cx="32.816" cy="47.587" r="32.816"/><circle cx="56.594" cy="22.169" r="22.169"/><circle cx="87.801" cy="39.174" r="22.169"/><circle cx="65.632" cy="56.944" r="22.169"/><circle cx="100.933" cy="54.346" r="22.169"/></g><path d="M67.163 97.603h7v38.394h-7z" fill="#ee442b"/></svg></g><g transform="translate(549.0 925.0) rotate(-166.10202333245977 62.0 91.5) translate(53.02779875143203 123.16133903558537) scale(0.38529658515365256 0.38620468426184257)"><svg width="184.201" height="95.804" viewBox="137.629 318.902 184.201 95.804"><g fill="#115693"><path d="M120.354 309.467c-2.327-22.575-9.748-29.076-9.823-29.135l3.119-3.909c.37.3 9.1 7.526 11.677 32.532z"/><path d="m126.535 307.62-4.422-2.334c.221-.419 5.693-10.345 29.778-17.546l1.433 4.79c-21.744 6.502-26.745 15.006-26.789 15.09zm22.479-73.42-4.1-2.859c.268-.391 6.854-9.615 31.611-13.976l.867 4.924c-22.346 3.939-28.319 11.834-28.378 11.911zm-24.5 173-4.1-2.859c.268-.391 6.854-9.615 31.611-13.976l.867 4.924c-22.346 3.939-28.319 11.834-28.378 11.911z"/><path d="M120.434 407.856c-14.259-17.649-24.059-19.055-24.156-19.067l.516-4.974c.471.046 11.731 1.345 27.53 20.9zm26.515-184.01c-3.185-22.466-10.875-28.7-10.953-28.761l3-4c.381.281 9.379 7.174 12.907 32.063z"/></g><ellipse cx="64.917" cy="211.668" fill="#108e82" rx="30.741" ry="85.957" transform="matrix(.8304598 -.55707855 .55707855 .8304598 -106.909 72.049)"/><ellipse cx="229.741" cy="275.121" fill="#108e82" rx="91.361" ry="32.674" transform="matrix(.9719569 -.23515908 .23515908 .9719569 -58.254 61.74)"/><ellipse cx="118.039" cy="129.658" fill="#108e82" rx="28.809" ry="82.655" transform="matrix(.94114062 -.33801528 .33801528 .94114062 -36.878 47.53)"/><ellipse cx="244.039" cy="193.325" fill="#108e82" rx="82.655" ry="28.809" transform="matrix(.94114062 -.33801528 .33801528 .94114062 -50.982 93.866)"/><ellipse cx="51.072" cy="325.853" fill="#108e82" rx="28.809" ry="82.655" transform="matrix(.78831153 -.61527631 .61527631 .78831153 -189.678 100.402)"/><ellipse cx="215.774" cy="365.572" fill="#108e82" rx="82.655" ry="28.809" transform="matrix(.91673267 -.3995012 .3995012 .91673267 -128.078 116.64)"/><path d="M127.735 473.841c-.132-.506-13.143-51.381-12.644-114 .294-36.877 5.136-70.607 14.392-100.253 11.638-37.28 30.321-68.175 55.529-91.826l6.158 6.563c-24.036 22.552-41.889 52.1-53.062 87.834-9 28.77-13.712 61.588-14.016 97.541-.519 61.474 12.226 111.383 12.355 111.88z" fill="#115693"/><ellipse cx="210.85" cy="91.838" fill="#108e82" rx="96.815" ry="28.903" transform="matrix(.31651008 -.94858915 .94858915 .31651008 56.999 262.782)"/></svg></g><g transform="translate(880.0 728.0) rotate(51.09119585929254 -137.5 98.5) translate(-118.0 0.0) scale(-0.8697302254973276 0.8718009992521099)"><svg width="180.516" height="188.116" viewBox="135.674 0 180.516 188.116"><g fill="#108e82"><path d="M137.542 225.97c-4.629-62.261-27.637-115.4-68.387-157.953l3.611-3.458c41.573 43.409 65.045 97.591 69.763 161.04z"/><path d="m126 150.069-3.367-3.7c31.145-28.359 71.8-41.9 72.21-42.035.359-.115 34.649-10.9 79.177-10.346l-.063 5c-43.682-.549-77.24 10-77.574 10.1-.383.131-40.056 13.362-70.383 40.981z"/><ellipse cx="50.49" cy="50.49" rx="29.612" ry="70.926" transform="matrix(.70710678 -.70710678 .70710678 .70710678 -20.913 50.49)"/><path d="m202.689 106.786-4.985-.394c.623-7.88-9.831-19.507-13.911-23.322l3.414-3.652c.671.627 16.419 15.497 15.482 27.368zm25.791-4.215-2.4-4.384c5.309-2.913 8.541-7.639 9.6-14.046a28.112 28.112 0 0 0-.03-9.223l4.891-1.033c.04.197 4.01 19.868-12.061 28.686zm-25.696 34.774-4.6-1.971c5.05-11.775-11.166-23.666-11.33-23.785l2.922-4.058a46.507 46.507 0 0 1 8.832 8.744c5.527 7.268 6.969 14.554 4.176 21.07z"/></g><circle cx="174.692" cy="73.284" fill="#ee442b" r="26.844"/><path d="m150.672 55.325 7.906-7.907 4.974 4.974-7.907 7.906z" fill="#115693"/><circle cx="235.87" cy="53.306" fill="#ee442b" r="26.844"/><path d="m230.54 23.947 11.18-.133.083 7.034-11.18.132z" fill="#115693"/><circle cx="218.288" cy="146.892" fill="#ee442b" r="26.844"/><path d="m239.986 166.59-8.732 6.983-4.394-5.492 8.732-6.985z" fill="#115693"/><circle cx="286.771" cy="102.504" fill="#ee442b" r="26.844"/><path d="m316.188 107.497-3.686 10.556-6.64-2.319 3.685-10.556z" fill="#115693"/></svg></g><g transform="translate(672.0 759.0) rotate(9.126416291156819 78.0 103.0) translate(59.82332349251002 91.72909602184923) scale(0.4800324945073205 0.4779615635375652)"><svg width="37.497" height="239.08" viewBox="124.623 191.917 37.497 239.08"><g fill="#108e82"><path d="M47.819 242.809c13.85-11.4 33.482-13.613 48.965-4.555 8.414 4.922 13.574 11.57 13.574 18.874 0 7.57-5.532 14.446-14.491 19.419 8.959 4.972 14.491 11.826 14.491 19.4 0 8.552-7.052 16.2-18.112 21.238-14.337 6.532-31.178 4.181-43.738-5.33L4.461 278.5zm77.806-217.566c34.642 8.063 58.421 35.92 57.556 70.614-.47 18.855-7.35 34.692-20.613 43.295-13.748 8.917-31.8 8.432-49.851.388-.012 19.758-6.89 36.416-20.638 45.334-15.53 10.073-36.517 8.139-56.8-3.088C8.988 167.233-3.693 138.332.938 107.639L17.179 0z"/><ellipse cx="243.882" cy="186.92" rx="87.89" ry="31.698" transform="matrix(.92269966 -.38551958 .38551958 .92269966 -53.209 108.472)"/><path d="m153.4 431-9-.244c2.1-77.3-.382-186.007-24.135-264.961-11.357-37.75-24.336-56.771-29.613-61.555l5.971-6.74c.68.6 16.806 15.215 31.752 64.026C141.927 205.788 157.268 288.464 153.4 431z"/><path d="M143.334 309.235c-17.416-36.882-60.555-31.126-60.989-31.064l-1.283-8.909a80.038 80.038 0 0 1 27.4 1.758c19.751 4.724 34.624 16.61 43.012 34.372zm5.457-33.335-8.748-2.117c.689-2.848 17.449-70.108 68.472-101.331l4.7 7.677c-47.805 29.248-64.264 95.105-64.424 95.771z"/></g></svg></g><g transform="translate(652.0 632.0) rotate(-4.1618880518116885 97.5 144.0) translate(83.54567299496736 194.0415630850859) scale(0.605909952459373 0.60779753588749)"><svg width="183.945" height="106.944" viewBox="137.885 319.254 183.945 106.944"><g fill="#115693"><path d="M120.354 309.467c-2.327-22.575-9.748-29.076-9.823-29.135l3.119-3.909c.37.3 9.1 7.526 11.677 32.532z"/><path d="m126.535 307.62-4.422-2.334c.221-.419 5.693-10.345 29.778-17.546l1.433 4.79c-21.744 6.502-26.745 15.006-26.789 15.09zm22.479-73.42-4.1-2.859c.268-.391 6.854-9.615 31.611-13.976l.867 4.924c-22.346 3.939-28.319 11.834-28.378 11.911zm-24.5 173-4.1-2.859c.268-.391 6.854-9.615 31.611-13.976l.867 4.924c-22.346 3.939-28.319 11.834-28.378 11.911z"/><path d="M120.434 407.856c-14.259-17.649-24.059-19.055-24.156-19.067l.516-4.974c.471.046 11.731 1.345 27.53 20.9zm26.515-184.01c-3.185-22.466-10.875-28.7-10.953-28.761l3-4c.381.281 9.379 7.174 12.907 32.063z"/></g><ellipse cx="64.917" cy="211.668" fill="#108e82" rx="30.741" ry="85.957" transform="matrix(.8304598 -.55707855 .55707855 .8304598 -106.909 72.049)"/><ellipse cx="229.741" cy="275.121" fill="#108e82" rx="91.361" ry="32.674" transform="matrix(.9719569 -.23515908 .23515908 .9719569 -58.254 61.74)"/><ellipse cx="118.039" cy="129.658" fill="#108e82" rx="28.809" ry="82.655" transform="matrix(.94114062 -.33801528 .33801528 .94114062 -36.878 47.53)"/><ellipse cx="244.039" cy="193.325" fill="#108e82" rx="82.655" ry="28.809" transform="matrix(.94114062 -.33801528 .33801528 .94114062 -50.982 93.866)"/><ellipse cx="51.072" cy="325.853" fill="#108e82" rx="28.809" ry="82.655" transform="matrix(.78831153 -.61527631 .61527631 .78831153 -189.678 100.402)"/><ellipse cx="215.774" cy="365.572" fill="#108e82" rx="82.655" ry="28.809" transform="matrix(.91673267 -.3995012 .3995012 .91673267 -128.078 116.64)"/><path d="M127.735 473.841c-.132-.506-13.143-51.381-12.644-114 .294-36.877 5.136-70.607 14.392-100.253 11.638-37.28 30.321-68.175 55.529-91.826l6.158 6.563c-24.036 22.552-41.889 52.1-53.062 87.834-9 28.77-13.712 61.588-14.016 97.541-.519 61.474 12.226 111.383 12.355 111.88z" fill="#115693"/><ellipse cx="210.85" cy="91.838" fill="#108e82" rx="96.815" ry="28.903" transform="matrix(.31651008 -.94858915 .94858915 .31651008 56.999 262.782)"/></svg></g><g transform="translate(543.0 792.0) rotate(-124.31311239520572 97.5 144.0) translate(83.54567299496661 194.04156308508848) scale(0.605909952459373 0.60779753588749)"><svg width="183.945" height="106.944" viewBox="137.885 319.254 183.945 106.944"><g fill="#115693"><path d="M120.354 309.467c-2.327-22.575-9.748-29.076-9.823-29.135l3.119-3.909c.37.3 9.1 7.526 11.677 32.532z"/><path d="m126.535 307.62-4.422-2.334c.221-.419 5.693-10.345 29.778-17.546l1.433 4.79c-21.744 6.502-26.745 15.006-26.789 15.09zm22.479-73.42-4.1-2.859c.268-.391 6.854-9.615 31.611-13.976l.867 4.924c-22.346 3.939-28.319 11.834-28.378 11.911zm-24.5 173-4.1-2.859c.268-.391 6.854-9.615 31.611-13.976l.867 4.924c-22.346 3.939-28.319 11.834-28.378 11.911z"/><path d="M120.434 407.856c-14.259-17.649-24.059-19.055-24.156-19.067l.516-4.974c.471.046 11.731 1.345 27.53 20.9zm26.515-184.01c-3.185-22.466-10.875-28.7-10.953-28.761l3-4c.381.281 9.379 7.174 12.907 32.063z"/></g><ellipse cx="64.917" cy="211.668" fill="#108e82" rx="30.741" ry="85.957" transform="matrix(.8304598 -.55707855 .55707855 .8304598 -106.909 72.049)"/><ellipse cx="229.741" cy="275.121" fill="#108e82" rx="91.361" ry="32.674" transform="matrix(.9719569 -.23515908 .23515908 .9719569 -58.254 61.74)"/><ellipse cx="118.039" cy="129.658" fill="#108e82" rx="28.809" ry="82.655" transform="matrix(.94114062 -.33801528 .33801528 .94114062 -36.878 47.53)"/><ellipse cx="244.039" cy="193.325" fill="#108e82" rx="82.655" ry="28.809" transform="matrix(.94114062 -.33801528 .33801528 .94114062 -50.982 93.866)"/><ellipse cx="51.072" cy="325.853" fill="#108e82" rx="28.809" ry="82.655" transform="matrix(.78831153 -.61527631 .61527631 .78831153 -189.678 100.402)"/><ellipse cx="215.774" cy="365.572" fill="#108e82" rx="82.655" ry="28.809" transform="matrix(.91673267 -.3995012 .3995012 .91673267 -128.078 116.64)"/><path d="M127.735 473.841c-.132-.506-13.143-51.381-12.644-114 .294-36.877 5.136-70.607 14.392-100.253 11.638-37.28 30.321-68.175 55.529-91.826l6.158 6.563c-24.036 22.552-41.889 52.1-53.062 87.834-9 28.77-13.712 61.588-14.016 97.541-.519 61.474 12.226 111.383 12.355 111.88z" fill="#115693"/><ellipse cx="210.85" cy="91.838" fill="#108e82" rx="96.815" ry="28.903" transform="matrix(.31651008 -.94858915 .94858915 .31651008 56.999 262.782)"/></svg></g><g transform="translate(886.0 733.0) rotate(0.0 14.0 14.0) scale(1.8989487962021026 1.8989487962021026)"><svg width="14.745" height="14.745" viewBox="0 0 14.745 14.745"><circle cx="7.372" cy="7.372" fill="#108E82" r="7.372"/></svg></g><g transform="translate(682.0 330.0) rotate(-89.9999999999999 103.5 89.5) scale(1.893991380966759 1.9034251018172925)"><svg width="109.293" height="94.041" viewBox="0 0 109.293 94.041"><path d="M73.896 46.687h35.397v3.867H73.896z" fill="#ffeea6"/><path d="M0 46.687h28.594v3.867H0zm65.172-14.764L75.375 21.72l2.735 2.734-10.203 10.203z" fill="#ee442b"/><g fill="#ffeea6"><path d="m23.82 73.275 9.318-9.32 2.734 2.735-9.319 9.32zm10.5-40.145-9.546-9.547 2.735-2.734 9.546 9.546zm40.793 40.792-8.758-8.758 2.734-2.734 8.758 8.758z"/></g><path d="M53.179 71.844v22.198h-3.867V71.844z" fill="#ee442b"/><path d="M53.18 0v26.542h-3.868V0z" fill="#ffeea6"/><circle cx="51.078" cy="47.832" fill="#ffeea6" r="17.185"/></svg></g><g transform="translate(711.0 258.0) rotate(0.0 -31.5 18.0) scale(-0.7009891736116519 0.6980261372009152)"><svg width="89.873" height="51.574" viewBox="0 0 89.873 51.574"><path d="M70.341 12.511c-2.358 0-4.609.439-6.702 1.205C59.308 5.558 50.73 0 40.851 0 26.913 0 15.564 11.061 15.087 24.883a13.52 13.52 0 0 0-1.682-.117C6.001 24.766 0 30.767 0 38.17s6.001 13.404 13.404 13.404H70.34c10.787 0 19.532-8.745 19.532-19.532.001-10.787-8.744-19.531-19.531-19.531z" fill="#ffeea6"/></svg></g><g transform="translate(649.0 484.0) rotate(0.0 -43.0 24.5) scale(-0.9569058560413026 0.9500911311901346)"><svg width="89.873" height="51.574" viewBox="0 0 89.873 51.574"><path d="M70.341 12.511c-2.358 0-4.609.439-6.702 1.205C59.308 5.558 50.73 0 40.851 0 26.913 0 15.564 11.061 15.087 24.883a13.52 13.52 0 0 0-1.682-.117C6.001 24.766 0 30.767 0 38.17s6.001 13.404 13.404 13.404H70.34c10.787 0 19.532-8.745 19.532-19.532.001-10.787-8.744-19.531-19.531-19.531z" fill="#ffeea6"/></svg></g><g transform="translate(373.0 135.0) rotate(0.0 27.5 27.5) scale(1.0617760617760619 1.0617760617760619)"><svg width="51.8" height="51.8" viewBox="0 0 51.8 51.8"><path d="M25.9 51.8C11.6 51.8 0 40.2 0 25.9S11.6 0 25.9 0s25.9 11.6 25.9 25.9-11.6 25.9-25.9 25.9zm0-40c-7.8 0-14.1 6.3-14.1 14.1S18.1 40 25.9 40 40 33.7 40 25.9s-6.3-14.1-14.1-14.1z" fill="#108E82"/></svg></g><g transform="translate(893.0 441.0) rotate(-153.44535044995934 55.5 99.5) scale(1.5721488867486262 1.5701312124726805)"><svg width="70.604" height="126.741" viewBox="0 0 70.604 126.741"><path d="M70.603 6.142 12.818 126.741.004 120.6 57.789.002z" fill="#ee442b"/></svg></g><g transform="translate(357.0 628.0) rotate(13.081913199336848 29.5 33.5) scale(1.476254816594105 1.4930362116991645)"><svg width="39.966" height="44.875" viewBox="0 0 39.966 44.875"><path d="M39.966 44.875 0 15.717 39.551 0zM17.875 17.982 31.1 27.631l-.137-14.85z" fill="#108E82"/></svg></g></svg>