<svg xmlns="http://www.w3.org/2000/svg" viewBox="0 0 1080 1080" width="1080" height="1080"><g transform="translate(619.0 220.0) rotate(0.0 211.0 419.0) translate(0.0 0.0) scale(1.7658677021960365 1.7740180450236465)"><svg width="238.976" height="435.17" viewBox="0 0 238.976 435.17"><path d="M0 472.374h238.976V226.241C238.976 101.292 137.685 0 12.735 0H0z" fill="#050c04"/></svg></g><g transform="translate(630.0 116.0) rotate(0.0 -223.5 503.5) translate(-4.0 0.0) scale(-1.870480717728977 1.864721578735878)"><svg width="236.838" height="470.311" viewBox="2.138 0 236.838 470.311"><path d="M0 540.027h238.976V226.241C238.976 101.292 137.685 0 12.735 0H0z" fill="#115693"/></svg></g><g transform="translate(672.0 800.0) rotate(0.0 344.0 148.0) translate(0.0 0.0) scale(1.4853996869433799 1.490110399057606)"><svg width="246.398" height="130.192" viewBox="0 0 246.398 130.192"><g fill="#ffeea6"><path d="M.975 46.324s98.499-42.423 304.029 59.977c0 0 25.417-95.085 157.805-82.651l.366 174.079L0 198.643S.244 46.324.975 46.324z"/><circle cx="409.355" cy="24.625" r="24.625"/><circle cx="439.953" cy="27.672" r="14.507"/><circle cx="381.195" cy="37.181" r="14.507"/></g></svg></g><g transform="translate(557.0 703.0) rotate(49.24582642487761 204.5 78.0) scale(1.637742558081799 1.6587627331305956)"><svg width="249.734" height="94.046" viewBox="0 0 249.734 94.046"><path d="m25.344 66.112-4.914-3.441 24.177-34.519L171.202 0l78.532 33.686-2.365 5.514-76.753-32.923L48.185 33.504z" fill="#108e82"/><path d="m60.031 28.562 5.348-2.722 18.567 36.464-5.348 2.723zm41.736-7.711 3.345-4.98 23.912 16.059-3.346 4.98z" fill="#108e82"/><circle cx="84.319" cy="75.814" fill="#ee442b" r="18.232"/><circle cx="138.254" cy="41.473" fill="#ee442b" r="18.232"/><circle cx="18.232" cy="75.814" fill="#ee442b" r="18.232"/><g fill="#108e82"><path d="M27.271 59.705S16.252 70.181.5 59.705c0 0 15.231-10.236 26.771 0z"/><path d="M27.066 59.258S41.2 64.864 38.3 83.558c0 0-15.683-9.529-11.234-24.3zm50.581-1.669s1.566 15.124-16.349 21.2c.002-.001 1.196-18.312 16.349-21.2z"/><path d="M77.168 57.479s13.07-7.768 26.1 5.944c.003 0-17.12 6.599-26.1-5.944zm45.822-26.808s9.938 11.507-1.278 26.741c0 0-9.497-15.702 1.278-26.741z"/><path d="M122.534 30.855s6.274-13.849 24.808-10.062c0 0-10.267 15.207-24.808 10.062z"/></g></svg></g><g transform="translate(283.0 729.0) rotate(0.0 310.0 133.5) translate(0.0 0.0) scale(1.338586927187348 1.344119853203989)"><svg width="302.558" height="198.643" viewBox="0 0 302.558 198.643"><g fill="#ffeea6"><path d="M.975 46.324s98.499-42.423 304.029 59.977c0 0 25.417-95.085 157.805-82.651l.366 174.079L0 198.643S.244 46.324.975 46.324z"/><circle cx="409.355" cy="24.625" r="24.625"/><circle cx="439.953" cy="27.672" r="14.507"/><circle cx="381.195" cy="37.181" r="14.507"/></g></svg></g><g transform="translate(978.0 595.0) rotate(-27.931912930134896 -169.0 64.5) translate(-0.0 22.367251914629165) scale(-1.3534400602240784 1.3716691831656849)"><svg width="105.13" height="77.739" viewBox="0 16.307 105.13 77.739"><path d="m25.344 66.112-4.914-3.441 24.177-34.519L171.202 0l78.532 33.686-2.365 5.514-76.753-32.923L48.185 33.504z" fill="#108e82"/><path d="m60.031 28.562 5.348-2.722 18.567 36.464-5.348 2.723zm41.736-7.711 3.345-4.98 23.912 16.059-3.346 4.98z" fill="#108e82"/><circle cx="84.319" cy="75.814" fill="#ee442b" r="18.232"/><circle cx="138.254" cy="41.473" fill="#ee442b" r="18.232"/><circle cx="18.232" cy="75.814" fill="#ee442b" r="18.232"/><g fill="#108e82"><path d="M27.271 59.705S16.252 70.181.5 59.705c0 0 15.231-10.236 26.771 0z"/><path d="M27.066 59.258S41.2 64.864 38.3 83.558c0 0-15.683-9.529-11.234-24.3zm50.581-1.669s1.566 15.124-16.349 21.2c.002-.001 1.196-18.312 16.349-21.2z"/><path d="M77.168 57.479s13.07-7.768 26.1 5.944c.003 0-17.12 6.599-26.1-5.944zm45.822-26.808s9.938 11.507-1.278 26.741c0 0-9.497-15.702 1.278-26.741z"/><path d="M122.534 30.855s6.274-13.849 24.808-10.062c0 0-10.267 15.207-24.808 10.062z"/></g></svg></g><g transform="translate(1068.0 565.0) rotate(-34.13980660273248 -169.0 64.5) translate(-215.0 0.0) scale(-1.3534400602240784 1.3716691831656849)"><svg width="90.88" height="94.046" viewBox="158.854 0 90.88 94.046"><path d="m25.344 66.112-4.914-3.441 24.177-34.519L171.202 0l78.532 33.686-2.365 5.514-76.753-32.923L48.185 33.504z" fill="#108e82"/><path d="m60.031 28.562 5.348-2.722 18.567 36.464-5.348 2.723zm41.736-7.711 3.345-4.98 23.912 16.059-3.346 4.98z" fill="#108e82"/><circle cx="84.319" cy="75.814" fill="#ee442b" r="18.232"/><circle cx="138.254" cy="41.473" fill="#ee442b" r="18.232"/><circle cx="18.232" cy="75.814" fill="#ee442b" r="18.232"/><g fill="#108e82"><path d="M27.271 59.705S16.252 70.181.5 59.705c0 0 15.231-10.236 26.771 0z"/><path d="M27.066 59.258S41.2 64.864 38.3 83.558c0 0-15.683-9.529-11.234-24.3zm50.581-1.669s1.566 15.124-16.349 21.2c.002-.001 1.196-18.312 16.349-21.2z"/><path d="M77.168 57.479s13.07-7.768 26.1 5.944c.003 0-17.12 6.599-26.1-5.944zm45.822-26.808s9.938 11.507-1.278 26.741c0 0-9.497-15.702 1.278-26.741z"/><path d="M122.534 30.855s6.274-13.849 24.808-10.062c0 0-10.267 15.207-24.808 10.062z"/></g></svg></g><g transform="translate(602.0 819.0) rotate(12.177383796004603 -104.0 117.5) scale(-1.3283774635654162 1.337758372375005)"><svg width="156.582" height="175.667" viewBox="0 0 156.582 175.667"><path d="M69.663 130.324c-1.976 0-3.19-.109-3.336-.124l1.333-13.937-.667 6.968.639-6.971c1.318.112 32.397 2.467 38.694-29.013l13.729 2.746c-4.594 22.97-19.087 32.728-30.436 36.87-8.121 2.966-15.758 3.461-19.956 3.461z" fill="#050c04"/><path d="m78.042 47.672 3.314-1.312c7.992-3.165 17.036.748 20.201 8.74a23.645 23.645 0 0 0 18.068 14.612l10.352 1.739 26.606 67.183-10.473 4.147S95.431 63.874 73.658 71.81zM38.567 79.885l-1.974 2.967c-4.762 7.156-2.821 16.817 4.335 21.579a23.645 23.645 0 0 1 10.523 20.718l-.458 10.487 60.157 40.031 6.24-9.377s-66.604-66.02-54.301-85.659z" fill="#108e82"/><path d="M81.307 66.881c6.064-5.189 6.773-14.312 1.584-20.376L43.095 0c-12.833 22.944-3.32 49.311 6.027 66.358l-3.115 2.666a7.492 7.492 0 0 1-10.563-.821L14.383 43.591C10.72 39.31 4.281 38.809 0 42.473l39.963 46.7c3.571 4.173 9.848 4.661 14.021 1.09z" fill="#050c04"/><circle cx="66.993" cy="61.349" fill="#ffeea6" r="5.473"/></svg></g><g transform="translate(721.0 489.0) rotate(8.7271588328023 169.0 64.5) translate(0.0 20.385522073945307) scale(1.3534400602240784 1.3716691831656849)"><svg width="61.779" height="79.184" viewBox="0 14.862 61.779 79.184"><path d="m25.344 66.112-4.914-3.441 24.177-34.519L171.202 0l78.532 33.686-2.365 5.514-76.753-32.923L48.185 33.504z" fill="#108e82"/><path d="m60.031 28.562 5.348-2.722 18.567 36.464-5.348 2.723zm41.736-7.711 3.345-4.98 23.912 16.059-3.346 4.98z" fill="#108e82"/><circle cx="84.319" cy="75.814" fill="#ee442b" r="18.232"/><circle cx="138.254" cy="41.473" fill="#ee442b" r="18.232"/><circle cx="18.232" cy="75.814" fill="#ee442b" r="18.232"/><g fill="#108e82"><path d="M27.271 59.705S16.252 70.181.5 59.705c0 0 15.231-10.236 26.771 0z"/><path d="M27.066 59.258S41.2 64.864 38.3 83.558c0 0-15.683-9.529-11.234-24.3zm50.581-1.669s1.566 15.124-16.349 21.2c.002-.001 1.196-18.312 16.349-21.2z"/><path d="M77.168 57.479s13.07-7.768 26.1 5.944c.003 0-17.12 6.599-26.1-5.944zm45.822-26.808s9.938 11.507-1.278 26.741c0 0-9.497-15.702 1.278-26.741z"/><path d="M122.534 30.855s6.274-13.849 24.808-10.062c0 0-10.267 15.207-24.808 10.062z"/></g></svg></g><g transform="translate(487.0 303.0) rotate(0.0 -237.0 346.0) scale(-1.6098356201603043 1.61455902939804)"><svg width="294.44" height="428.6" viewBox="0 0 294.44 428.6"><path d="M266.46 105.9a69.22 69.22 0 0 0-69.22-69.22q-2.72 0-5.37.21l-10.62.45C142.79 41.23 119 72.25 119 107.55V132h9l.24 14.43 3 .06.11 15.58c0 19.94 16.4 18.35 29.66 18.5l10.9.2L172 211h53.42v-41.81a69.24 69.24 0 0 0 41.04-63.29z" fill="#ffc1a3"/><circle cx="142.79" cy="95.77" fill="#0f0f0e" r="6.44"/><path d="M217.77 175.69h11.89v34.59h-11.89z" fill="#ffc1a3"/><path d="M136.84 81.62h11.9a3.17 3.17 0 0 0 0-6.33h-11.9a3.17 3.17 0 0 0 0 6.33zm48.52-28.69v18.91a29.77 29.77 0 0 0 13.51 25l11.4 7.43-5.13 24.43 7.72 47.7 16.8 5.63c3.22-4 53.71-55.45 32.4-101.69z" fill="#050c04"/><circle cx="209.89" cy="117.64" fill="#ffc1a3" r="16.06"/><path d="M128.62 131.91H148a14.55 14.55 0 0 1 14.55 14.55.39.39 0 0 1-.39.39h-33.54a7.47 7.47 0 0 1-7.47-7.47 7.47 7.47 0 0 1 7.47-7.47z" fill="#050c04"/><path d="M225.4 187.59h.01z" fill="#ee442b"/><g fill="#050c04"><path d="M186.7 45.75c-.58-.44-56.35-22.22-79.88 19.75 0 0 76.83 15.41 79.88-10.74s0-9.01 0-9.01z"/><path d="M144 45.54c.72-.06 34.08-24.56 77.46-6.83s42.92 52 42.92 52l-39.6-4-39.91-32.61s-1.2 5.74-8.41 11.85l-33.67-20.29m8.8 163.21-5.48-4.36L162.45 184l.75-1.08c18.61-23.64 32.8-48.57 45.8-99.74l6.79 1.72c-13.33 52.31-27.88 77.93-47 102.26l-.77 1.11z"/></g><circle cx="166.37" cy="186.42" fill="#ee442b" r="6.7"/><path d="M229.66 427.55V197h-34.41A110.27 110.27 0 0 0 85 307.22v120.33z" fill="#108e82"/><path d="M229.66 427.55v-231h-24c-35.88-1.51-79 29.61-80.43 80.06 0 0-.58 128.62-.58 150.93z" fill="#ee442b"/><path d="M229.73 428.47h-74.3v-111.2h74.3z" fill="#ffc1a3"/><path d="M215.67 376.48v51.85h-156v-51.85z" fill="#ffc1a3"/><path d="m67.69 428.5-46.39.1a8.72 8.72 0 0 1 .18-17.43L14 411.1a8.66 8.66 0 0 1-8.5-8.8 8.69 8.69 0 0 1 7.22-8.51l-4.23-.1a8.71 8.71 0 0 1 .17-17.42l5 .11a8.71 8.71 0 0 1-6-8.4 8.64 8.64 0 0 1 8.67-8.62l32.36.32c10.85.11 19.55 9.74 19.43 21.51z" fill="#115693"/><path d="m293.76 138.86-27.84-39.63-101.49-67.32-47.34-10.22a3.56 3.56 0 0 0-2.67 6.48c19.64 12.53 155.22 102.46 174.41 115.67a3.56 3.56 0 0 0 4.93-4.98z" fill="#ffeea6"/><path d="m219.338 5.735 49.17 32.607a34.48 34.48 0 0 1 9.68 47.792l-12.832 19.352-106.634-70.714 12.832-19.351a34.48 34.48 0 0 1 47.784-9.686z" fill="#ffeea6"/><path d="m170.793 16.537 106.475 70.609-9.621 14.51-106.476-70.61z" fill="#ee442b"/><path d="m66.39 428.5 58.14-.17-15.31-63.19-43.63 11.34z" fill="#115693"/><path d="M219.34 234.51a63.9 63.9 0 0 0-63.9 63.9v53.17h74.22V234.51z" fill="#108e82"/><path d="M152.06 295.5v80.98m-3.5-80.98h7v80.98h-7z" fill="#050c04"/></svg></g><g transform="translate(695.0 339.0) rotate(0.0 36.5 22.5) scale(0.6012981450364074 0.6098635260953826)"><svg width="121.404" height="73.787" viewBox="0 0 121.404 73.787"><path d="M104.362 39.702c-.451 0-.893.033-1.335.068.073-.95.122-1.907.122-2.876C103.149 16.518 86.631 0 66.255 0c-16.11 0-29.8 10.33-34.829 24.724a25 25 0 0 0-6.469-.851C11.174 23.872 0 35.046 0 48.83s11.174 24.957 24.957 24.957h79.404c9.413 0 17.043-7.63 17.043-17.042s-7.63-17.043-17.042-17.043z" fill="#ffeea6"/></svg></g><g transform="translate(384.0 245.0) rotate(-89.99999999999997 78.0 67.5) scale(1.4273558233372676 1.4355440712029859)"><svg width="109.293" height="94.041" viewBox="0 0 109.293 94.041"><path d="M73.896 46.687h35.397v3.867H73.896z" fill="#ffeea6"/><path d="M0 46.687h28.594v3.867H0zm65.172-14.764L75.375 21.72l2.735 2.734-10.203 10.203z" fill="#ee442b"/><g fill="#ffeea6"><path d="m23.82 73.275 9.318-9.32 2.734 2.735-9.319 9.32zm10.5-40.145-9.546-9.547 2.735-2.734 9.546 9.546zm40.793 40.792-8.758-8.758 2.734-2.734 8.758 8.758z"/></g><path d="M53.179 71.844v22.198h-3.867V71.844z" fill="#ee442b"/><path d="M53.18 0v26.542h-3.868V0z" fill="#ffeea6"/><circle cx="51.078" cy="47.832" fill="#ffeea6" r="17.185"/></svg></g><g transform="translate(342.0 422.0) rotate(0.0 36.5 22.5) scale(0.6012981450364074 0.6098635260953826)"><svg width="121.404" height="73.787" viewBox="0 0 121.404 73.787"><path d="M104.362 39.702c-.451 0-.893.033-1.335.068.073-.95.122-1.907.122-2.876C103.149 16.518 86.631 0 66.255 0c-16.11 0-29.8 10.33-34.829 24.724a25 25 0 0 0-6.469-.851C11.174 23.872 0 35.046 0 48.83s11.174 24.957 24.957 24.957h79.404c9.413 0 17.043-7.63 17.043-17.042s-7.63-17.043-17.042-17.043z" fill="#ffeea6"/></svg></g><g transform="translate(578.0 829.0) rotate(0.0 233.5 86.5) translate(0.0 99.48102599368852) scale(1.1823114061404243 1.1921497284930676)"><svg width="392.452" height="55.362" viewBox="0 83.447 392.452 55.362"><path d="m362.338 75.279-.119.024L340.57 58.5l5.895-39-24.488 44.442 10.159 15.335-38.729-19.19-47.843 14.625 42.855 1.701L303.2 86.971l-168.514 33.317L0 144.663l394.875.453L394.989 0z" fill="#108e82"/></svg></g><g transform="translate(865.0 794.0) rotate(0.0 121.5 78.0) translate(16.65146467236647 0.0) scale(1.254614451299791 1.2532335031089832)"><svg width="127.529" height="124.478" viewBox="13.272 0 127.529 124.478"><path d="m160.215 115.22-18.709-33.478-22.944 32.267-2.391-29.399-15.774 23.423 6.536-61.519 24.239-17.021-24.564 2.056-2.05 9.941-30.93 77.538 1.911-69.314-10.357-11.313 6.374 20.396-18.961 64.055-17.926-52.583L62.155 0 19.133 65.967l14.341 55.451L.941 63.324l-.929-1.659L0 124.478h193.685z" fill="#108e82"/></svg></g><g transform="translate(424.0 850.0) rotate(0.0 258.0 95.0) translate(54.7731445125493 0.0) scale(1.3063654937226101 1.3092973896744673)"><svg width="353.061" height="90.125" viewBox="41.928 0 353.061 90.125"><path d="m362.338 75.279-.119.024L340.57 58.5l5.895-39-24.488 44.442 10.159 15.335-38.729-19.19-47.843 14.625 42.855 1.701L303.2 86.971l-168.514 33.317L0 144.663l394.875.453L394.989 0z" fill="#108e82"/></svg></g><g transform="translate(903.0 237.0) rotate(17.178964198219184 49.0 87.5) scale(1.388023341453742 1.380768654184518)"><svg width="70.604" height="126.741" viewBox="0 0 70.604 126.741"><path d="M70.603 6.142 12.818 126.741.004 120.6 57.789.002z" fill="#ee442b"/></svg></g><g transform="translate(395.0 663.0) rotate(0.0 24.5 24.5) scale(0.9459459459459459 0.9459459459459459)"><svg width="51.8" height="51.8" viewBox="0 0 51.8 51.8"><path d="M25.9 51.8C11.6 51.8 0 40.2 0 25.9S11.6 0 25.9 0s25.9 11.6 25.9 25.9-11.6 25.9-25.9 25.9zm0-40c-7.8 0-14.1 6.3-14.1 14.1S18.1 40 25.9 40 40 33.7 40 25.9s-6.3-14.1-14.1-14.1z" fill="#108E82"/></svg></g><g transform="translate(527.0 548.0) rotate(0.0 17.0 17.0) scale(2.3058663953882674 2.3058663953882674)"><svg width="14.745" height="14.745" viewBox="0 0 14.745 14.745"><circle cx="7.372" cy="7.372" fill="#108E82" r="7.372"/></svg></g><g transform="translate(549.0 416.0) rotate(55.17949653060144 169.0 64.5) translate(246.6518847006652 0.0) scale(1.3534400602240784 1.3716691831656849)"><svg width="67.236" height="94.046" viewBox="182.241 0 67.236 94.046"><path d="m25.344 66.112-4.914-3.441 24.177-34.519L171.202 0l78.532 33.686-2.365 5.514-76.753-32.923L48.185 33.504z" fill="#108e82"/><path d="m60.031 28.562 5.348-2.722 18.567 36.464-5.348 2.723zm41.736-7.711 3.345-4.98 23.912 16.059-3.346 4.98z" fill="#108e82"/><circle cx="84.319" cy="75.814" fill="#ee442b" r="18.232"/><circle cx="138.254" cy="41.473" fill="#ee442b" r="18.232"/><circle cx="18.232" cy="75.814" fill="#ee442b" r="18.232"/><g fill="#108e82"><path d="M27.271 59.705S16.252 70.181.5 59.705c0 0 15.231-10.236 26.771 0z"/><path d="M27.066 59.258S41.2 64.864 38.3 83.558c0 0-15.683-9.529-11.234-24.3zm50.581-1.669s1.566 15.124-16.349 21.2c.002-.001 1.196-18.312 16.349-21.2z"/><path d="M77.168 57.479s13.07-7.768 26.1 5.944c.003 0-17.12 6.599-26.1-5.944zm45.822-26.808s9.938 11.507-1.278 26.741c0 0-9.497-15.702 1.278-26.741z"/><path d="M122.534 30.855s6.274-13.849 24.808-10.062c0 0-10.267 15.207-24.808 10.062z"/></g></svg></g><g transform="translate(951.0 699.0) rotate(83.60207386797305 23.5 26.5) scale(1.1759995996597108 1.181058495821727)"><svg width="39.966" height="44.875" viewBox="0 0 39.966 44.875"><path d="M39.966 44.875 0 15.717 39.551 0zM17.875 17.982 31.1 27.631l-.137-14.85z" fill="#115693"/></svg></g><g transform="translate(900.0 529.0) rotate(-37.10927781398593 -169.0 64.5) translate(-0.0 45.49889135254996) scale(-1.3534400602240784 1.3716691831656849)"><svg width="46.261" height="60.876" viewBox="0 33.17 46.261 60.876"><path d="m25.344 66.112-4.914-3.441 24.177-34.519L171.202 0l78.532 33.686-2.365 5.514-76.753-32.923L48.185 33.504z" fill="#108e82"/><path d="m60.031 28.562 5.348-2.722 18.567 36.464-5.348 2.723zm41.736-7.711 3.345-4.98 23.912 16.059-3.346 4.98z" fill="#108e82"/><circle cx="84.319" cy="75.814" fill="#ee442b" r="18.232"/><circle cx="138.254" cy="41.473" fill="#ee442b" r="18.232"/><circle cx="18.232" cy="75.814" fill="#ee442b" r="18.232"/><g fill="#108e82"><path d="M27.271 59.705S16.252 70.181.5 59.705c0 0 15.231-10.236 26.771 0z"/><path d="M27.066 59.258S41.2 64.864 38.3 83.558c0 0-15.683-9.529-11.234-24.3zm50.581-1.669s1.566 15.124-16.349 21.2c.002-.001 1.196-18.312 16.349-21.2z"/><path d="M77.168 57.479s13.07-7.768 26.1 5.944c.003 0-17.12 6.599-26.1-5.944zm45.822-26.808s9.938 11.507-1.278 26.741c0 0-9.497-15.702 1.278-26.741z"/><path d="M122.534 30.855s6.274-13.849 24.808-10.062c0 0-10.267 15.207-24.808 10.062z"/></g></svg></g><g transform="translate(824.0 449.0) rotate(26.922068231795453 14.5 14.5) scale(0.5198996055934026 0.5198996055934026)"><svg width="55.78" height="55.78" viewBox="0 0 55.78 55.78"><path d="M22.938 55.78H0V32.842C0 14.704 14.704 0 32.842 0H55.78v22.938c0 18.138-14.704 32.842-32.842 32.842z" fill="#108e82"/></svg></g><g transform="translate(595.0 309.0) rotate(83.43187348183285 169.0 64.5) translate(270.59866962306086 0.0) scale(1.3534400602240784 1.3716691831656849)"><svg width="31.771" height="94.046" viewBox="199.934 0 31.771 94.046"><path d="m25.344 66.112-4.914-3.441 24.177-34.519L171.202 0l78.532 33.686-2.365 5.514-76.753-32.923L48.185 33.504z" fill="#108e82"/><path d="m60.031 28.562 5.348-2.722 18.567 36.464-5.348 2.723zm41.736-7.711 3.345-4.98 23.912 16.059-3.346 4.98z" fill="#108e82"/><circle cx="84.319" cy="75.814" fill="#ee442b" r="18.232"/><circle cx="138.254" cy="41.473" fill="#ee442b" r="18.232"/><circle cx="18.232" cy="75.814" fill="#ee442b" r="18.232"/><g fill="#108e82"><path d="M27.271 59.705S16.252 70.181.5 59.705c0 0 15.231-10.236 26.771 0z"/><path d="M27.066 59.258S41.2 64.864 38.3 83.558c0 0-15.683-9.529-11.234-24.3zm50.581-1.669s1.566 15.124-16.349 21.2c.002-.001 1.196-18.312 16.349-21.2z"/><path d="M77.168 57.479s13.07-7.768 26.1 5.944c.003 0-17.12 6.599-26.1-5.944zm45.822-26.808s9.938 11.507-1.278 26.741c0 0-9.497-15.702 1.278-26.741z"/><path d="M122.534 30.855s6.274-13.849 24.808-10.062c0 0-10.267 15.207-24.808 10.062z"/></g></svg></g><g transform="translate(802.0 452.0) rotate(-110.44170564071197 10.0 10.0) scale(0.35855145213338113 0.35855145213338113)"><svg width="55.78" height="55.78" viewBox="0 0 55.78 55.78"><path d="M22.938 55.78H0V32.842C0 14.704 14.704 0 32.842 0H55.78v22.938c0 18.138-14.704 32.842-32.842 32.842z" fill="#108e82"/></svg></g></svg>